<svg width="229" height="47" viewBox="0 0 229 47" fill="none" xmlns="http://www.w3.org/2000/svg">
<path d="M227 1H21.5652L2 46H208.979L227 1Z" stroke="#658E76" stroke-width="2"/>
<path d="M48.904 26.728H44.248L43.448 29H41.544L45.528 17.864H47.64L51.624 29H49.704L48.904 26.728ZM48.392 25.24L46.584 20.072L44.76 25.24H48.392ZM57.0203 29.112C56.2736 29.112 55.6016 28.984 55.0043 28.728C54.4069 28.4613 53.9376 28.088 53.5963 27.608C53.2549 27.128 53.0843 26.568 53.0843 25.928H55.0363C55.0789 26.408 55.2656 26.8027 55.5963 27.112C55.9376 27.4213 56.4123 27.576 57.0203 27.576C57.6496 27.576 58.1403 27.4267 58.4923 27.128C58.8443 26.8187 59.0203 26.424 59.0203 25.944C59.0203 25.5707 58.9083 25.2667 58.6843 25.032C58.4709 24.7973 58.1989 24.616 57.8683 24.488C57.5483 24.36 57.1003 24.2213 56.5243 24.072C55.7989 23.88 55.2069 23.688 54.7483 23.496C54.3003 23.2933 53.9163 22.984 53.5963 22.568C53.2763 22.152 53.1163 21.5973 53.1163 20.904C53.1163 20.264 53.2763 19.704 53.5963 19.224C53.9163 18.744 54.3643 18.376 54.9403 18.12C55.5163 17.864 56.1829 17.736 56.9403 17.736C58.0176 17.736 58.8976 18.008 59.5803 18.552C60.2736 19.0853 60.6576 19.8213 60.7323 20.76H58.7163C58.6843 20.3547 58.4923 20.008 58.1403 19.72C57.7883 19.432 57.3243 19.288 56.7483 19.288C56.2256 19.288 55.7989 19.4213 55.4683 19.688C55.1376 19.9547 54.9723 20.3387 54.9723 20.84C54.9723 21.1813 55.0736 21.464 55.2763 21.688C55.4896 21.9013 55.7563 22.072 56.0763 22.2C56.3963 22.328 56.8336 22.4667 57.3883 22.616C58.1243 22.8187 58.7216 23.0213 59.1803 23.224C59.6496 23.4267 60.0443 23.7413 60.3643 24.168C60.6949 24.584 60.8603 25.144 60.8603 25.848C60.8603 26.4133 60.7056 26.9467 60.3963 27.448C60.0976 27.9493 59.6549 28.3547 59.0683 28.664C58.4923 28.9627 57.8096 29.112 57.0203 29.112ZM66.6765 29.112C65.9298 29.112 65.2578 28.984 64.6605 28.728C64.0632 28.4613 63.5938 28.088 63.2525 27.608C62.9112 27.128 62.7405 26.568 62.7405 25.928H64.6925C64.7352 26.408 64.9218 26.8027 65.2525 27.112C65.5938 27.4213 66.0685 27.576 66.6765 27.576C67.3058 27.576 67.7965 27.4267 68.1485 27.128C68.5005 26.8187 68.6765 26.424 68.6765 25.944C68.6765 25.5707 68.5645 25.2667 68.3405 25.032C68.1272 24.7973 67.8552 24.616 67.5245 24.488C67.2045 24.36 66.7565 24.2213 66.1805 24.072C65.4552 23.88 64.8632 23.688 64.4045 23.496C63.9565 23.2933 63.5725 22.984 63.2525 22.568C62.9325 22.152 62.7725 21.5973 62.7725 20.904C62.7725 20.264 62.9325 19.704 63.2525 19.224C63.5725 18.744 64.0205 18.376 64.5965 18.12C65.1725 17.864 65.8392 17.736 66.5965 17.736C67.6738 17.736 68.5538 18.008 69.2365 18.552C69.9298 19.0853 70.3138 19.8213 70.3885 20.76H68.3725C68.3405 20.3547 68.1485 20.008 67.7965 19.72C67.4445 19.432 66.9805 19.288 66.4045 19.288C65.8818 19.288 65.4552 19.4213 65.1245 19.688C64.7938 19.9547 64.6285 20.3387 64.6285 20.84C64.6285 21.1813 64.7298 21.464 64.9325 21.688C65.1458 21.9013 65.4125 22.072 65.7325 22.2C66.0525 22.328 66.4898 22.4667 67.0445 22.616C67.7805 22.8187 68.3778 23.0213 68.8365 23.224C69.3058 23.4267 69.7005 23.7413 70.0205 24.168C70.3512 24.584 70.5165 25.144 70.5165 25.848C70.5165 26.4133 70.3618 26.9467 70.0525 27.448C69.7538 27.9493 69.3112 28.3547 68.7245 28.664C68.1485 28.9627 67.4658 29.112 66.6765 29.112ZM74.4928 17.88V29H72.6688V17.88H74.4928ZM80.5515 29.112C79.8048 29.112 79.1328 28.984 78.5355 28.728C77.9382 28.4613 77.4688 28.088 77.1275 27.608C76.7862 27.128 76.6155 26.568 76.6155 25.928H78.5675C78.6102 26.408 78.7968 26.8027 79.1275 27.112C79.4688 27.4213 79.9435 27.576 80.5515 27.576C81.1808 27.576 81.6715 27.4267 82.0235 27.128C82.3755 26.8187 82.5515 26.424 82.5515 25.944C82.5515 25.5707 82.4395 25.2667 82.2155 25.032C82.0022 24.7973 81.7302 24.616 81.3995 24.488C81.0795 24.36 80.6315 24.2213 80.0555 24.072C79.3302 23.88 78.7382 23.688 78.2795 23.496C77.8315 23.2933 77.4475 22.984 77.1275 22.568C76.8075 22.152 76.6475 21.5973 76.6475 20.904C76.6475 20.264 76.8075 19.704 77.1275 19.224C77.4475 18.744 77.8955 18.376 78.4715 18.12C79.0475 17.864 79.7142 17.736 80.4715 17.736C81.5488 17.736 82.4288 18.008 83.1115 18.552C83.8048 19.0853 84.1888 19.8213 84.2635 20.76H82.2475C82.2155 20.3547 82.0235 20.008 81.6715 19.72C81.3195 19.432 80.8555 19.288 80.2795 19.288C79.7568 19.288 79.3302 19.4213 78.9995 19.688C78.6688 19.9547 78.5035 20.3387 78.5035 20.84C78.5035 21.1813 78.6048 21.464 78.8075 21.688C79.0208 21.9013 79.2875 22.072 79.6075 22.2C79.9275 22.328 80.3648 22.4667 80.9195 22.616C81.6555 22.8187 82.2528 23.0213 82.7115 23.224C83.1808 23.4267 83.5755 23.7413 83.8955 24.168C84.2262 24.584 84.3915 25.144 84.3915 25.848C84.3915 26.4133 84.2368 26.9467 83.9275 27.448C83.6288 27.9493 83.1862 28.3547 82.5995 28.664C82.0235 28.9627 81.3408 29.112 80.5515 29.112ZM93.7278 17.88V19.368H90.7678V29H88.9438V19.368H85.9678V17.88H93.7278ZM102.279 26.728H97.623L96.823 29H94.919L98.903 17.864H101.015L104.999 29H103.079L102.279 26.728ZM101.767 25.24L99.959 20.072L98.135 25.24H101.767ZM115.96 29.112C114.925 29.112 113.97 28.872 113.096 28.392C112.232 27.9013 111.544 27.224 111.032 26.36C110.53 25.4853 110.28 24.504 110.28 23.416C110.28 22.328 110.53 21.352 111.032 20.488C111.544 19.624 112.232 18.952 113.096 18.472C113.97 17.9813 114.925 17.736 115.96 17.736C117.005 17.736 117.96 17.9813 118.824 18.472C119.698 18.952 120.386 19.624 120.888 20.488C121.389 21.352 121.64 22.328 121.64 23.416C121.64 24.504 121.389 25.4853 120.888 26.36C120.386 27.224 119.698 27.9013 118.824 28.392C117.96 28.872 117.005 29.112 115.96 29.112ZM115.96 27.528C116.696 27.528 117.352 27.3627 117.928 27.032C118.504 26.6907 118.952 26.2107 119.272 25.592C119.602 24.9627 119.768 24.2373 119.768 23.416C119.768 22.5947 119.602 21.8747 119.272 21.256C118.952 20.6373 118.504 20.1627 117.928 19.832C117.352 19.5013 116.696 19.336 115.96 19.336C115.224 19.336 114.568 19.5013 113.992 19.832C113.416 20.1627 112.962 20.6373 112.632 21.256C112.312 21.8747 112.152 22.5947 112.152 23.416C112.152 24.2373 112.312 24.9627 112.632 25.592C112.962 26.2107 113.416 26.6907 113.992 27.032C114.568 27.3627 115.224 27.528 115.96 27.528ZM134.775 17.88V19.368H131.815V29H129.991V19.368H127.015V17.88H134.775ZM142.398 29L139.838 24.552H138.446V29H136.622V17.88H140.462C141.315 17.88 142.035 18.0293 142.622 18.328C143.219 18.6267 143.662 19.0267 143.95 19.528C144.249 20.0293 144.398 20.5893 144.398 21.208C144.398 21.9333 144.185 22.5947 143.758 23.192C143.342 23.7787 142.697 24.1787 141.822 24.392L144.574 29H142.398ZM138.446 23.096H140.462C141.145 23.096 141.657 22.9253 141.998 22.584C142.35 22.2427 142.526 21.784 142.526 21.208C142.526 20.632 142.355 20.184 142.014 19.864C141.673 19.5333 141.155 19.368 140.462 19.368H138.446V23.096ZM153.435 26.728H148.779L147.979 29H146.075L150.059 17.864H152.171L156.155 29H154.235L153.435 26.728ZM152.923 25.24L151.115 20.072L149.291 25.24H152.923ZM159.712 17.88V29H157.888V17.88H159.712ZM163.93 27.528H167.69V29H162.106V17.88H163.93V27.528ZM171.04 19.352V22.616H174.88V24.104H171.04V27.512H175.36V29H169.216V17.864H175.36V19.352H171.04ZM183.382 29L180.822 24.552H179.43V29H177.606V17.88H181.446C182.3 17.88 183.02 18.0293 183.606 18.328C184.204 18.6267 184.646 19.0267 184.934 19.528C185.233 20.0293 185.382 20.5893 185.382 21.208C185.382 21.9333 185.169 22.5947 184.742 23.192C184.326 23.7787 183.681 24.1787 182.806 24.392L185.558 29H183.382ZM179.43 23.096H181.446C182.129 23.096 182.641 22.9253 182.982 22.584C183.334 22.2427 183.51 21.784 183.51 21.208C183.51 20.632 183.34 20.184 182.998 19.864C182.657 19.5333 182.14 19.368 181.446 19.368H179.43V23.096Z" fill="#F9F9F9"/>
</svg>
