<svg width="225" height="45" viewBox="0 0 225 45" fill="none" xmlns="http://www.w3.org/2000/svg">
<path d="M225 0H19.5652L0 45H206.979L225 0Z" fill="#658E76"/>
<path d="M69.904 25.728H65.248L64.448 28H62.544L66.528 16.864H68.64L72.624 28H70.704L69.904 25.728ZM69.392 24.24L67.584 19.072L65.76 24.24H69.392ZM78.0203 28.112C77.2736 28.112 76.6016 27.984 76.0043 27.728C75.4069 27.4613 74.9376 27.088 74.5963 26.608C74.2549 26.128 74.0843 25.568 74.0843 24.928H76.0363C76.0789 25.408 76.2656 25.8027 76.5963 26.112C76.9376 26.4213 77.4123 26.576 78.0203 26.576C78.6496 26.576 79.1403 26.4267 79.4923 26.128C79.8443 25.8187 80.0203 25.424 80.0203 24.944C80.0203 24.5707 79.9083 24.2667 79.6843 24.032C79.4709 23.7973 79.1989 23.616 78.8683 23.488C78.5483 23.36 78.1003 23.2213 77.5243 23.072C76.7989 22.88 76.2069 22.688 75.7483 22.496C75.3003 22.2933 74.9163 21.984 74.5963 21.568C74.2763 21.152 74.1163 20.5973 74.1163 19.904C74.1163 19.264 74.2763 18.704 74.5963 18.224C74.9163 17.744 75.3643 17.376 75.9403 17.12C76.5163 16.864 77.1829 16.736 77.9403 16.736C79.0176 16.736 79.8976 17.008 80.5803 17.552C81.2736 18.0853 81.6576 18.8213 81.7323 19.76H79.7163C79.6843 19.3547 79.4923 19.008 79.1403 18.72C78.7883 18.432 78.3243 18.288 77.7483 18.288C77.2256 18.288 76.7989 18.4213 76.4683 18.688C76.1376 18.9547 75.9723 19.3387 75.9723 19.84C75.9723 20.1813 76.0736 20.464 76.2763 20.688C76.4896 20.9013 76.7563 21.072 77.0763 21.2C77.3963 21.328 77.8336 21.4667 78.3883 21.616C79.1243 21.8187 79.7216 22.0213 80.1803 22.224C80.6496 22.4267 81.0443 22.7413 81.3643 23.168C81.6949 23.584 81.8603 24.144 81.8603 24.848C81.8603 25.4133 81.7056 25.9467 81.3963 26.448C81.0976 26.9493 80.6549 27.3547 80.0683 27.664C79.4923 27.9627 78.8096 28.112 78.0203 28.112ZM87.6765 28.112C86.9298 28.112 86.2578 27.984 85.6605 27.728C85.0632 27.4613 84.5938 27.088 84.2525 26.608C83.9112 26.128 83.7405 25.568 83.7405 24.928H85.6925C85.7352 25.408 85.9218 25.8027 86.2525 26.112C86.5938 26.4213 87.0685 26.576 87.6765 26.576C88.3058 26.576 88.7965 26.4267 89.1485 26.128C89.5005 25.8187 89.6765 25.424 89.6765 24.944C89.6765 24.5707 89.5645 24.2667 89.3405 24.032C89.1272 23.7973 88.8552 23.616 88.5245 23.488C88.2045 23.36 87.7565 23.2213 87.1805 23.072C86.4552 22.88 85.8632 22.688 85.4045 22.496C84.9565 22.2933 84.5725 21.984 84.2525 21.568C83.9325 21.152 83.7725 20.5973 83.7725 19.904C83.7725 19.264 83.9325 18.704 84.2525 18.224C84.5725 17.744 85.0205 17.376 85.5965 17.12C86.1725 16.864 86.8392 16.736 87.5965 16.736C88.6738 16.736 89.5538 17.008 90.2365 17.552C90.9298 18.0853 91.3138 18.8213 91.3885 19.76H89.3725C89.3405 19.3547 89.1485 19.008 88.7965 18.72C88.4445 18.432 87.9805 18.288 87.4045 18.288C86.8818 18.288 86.4552 18.4213 86.1245 18.688C85.7938 18.9547 85.6285 19.3387 85.6285 19.84C85.6285 20.1813 85.7298 20.464 85.9325 20.688C86.1458 20.9013 86.4125 21.072 86.7325 21.2C87.0525 21.328 87.4898 21.4667 88.0445 21.616C88.7805 21.8187 89.3778 22.0213 89.8365 22.224C90.3058 22.4267 90.7005 22.7413 91.0205 23.168C91.3512 23.584 91.5165 24.144 91.5165 24.848C91.5165 25.4133 91.3618 25.9467 91.0525 26.448C90.7538 26.9493 90.3112 27.3547 89.7245 27.664C89.1485 27.9627 88.4658 28.112 87.6765 28.112ZM95.4928 16.88V28H93.6688V16.88H95.4928ZM101.552 28.112C100.805 28.112 100.133 27.984 99.5355 27.728C98.9382 27.4613 98.4688 27.088 98.1275 26.608C97.7862 26.128 97.6155 25.568 97.6155 24.928H99.5675C99.6102 25.408 99.7968 25.8027 100.128 26.112C100.469 26.4213 100.944 26.576 101.552 26.576C102.181 26.576 102.672 26.4267 103.024 26.128C103.376 25.8187 103.552 25.424 103.552 24.944C103.552 24.5707 103.44 24.2667 103.216 24.032C103.002 23.7973 102.73 23.616 102.4 23.488C102.08 23.36 101.632 23.2213 101.056 23.072C100.33 22.88 99.7382 22.688 99.2795 22.496C98.8315 22.2933 98.4475 21.984 98.1275 21.568C97.8075 21.152 97.6475 20.5973 97.6475 19.904C97.6475 19.264 97.8075 18.704 98.1275 18.224C98.4475 17.744 98.8955 17.376 99.4715 17.12C100.048 16.864 100.714 16.736 101.472 16.736C102.549 16.736 103.429 17.008 104.112 17.552C104.805 18.0853 105.189 18.8213 105.264 19.76H103.248C103.216 19.3547 103.024 19.008 102.672 18.72C102.32 18.432 101.856 18.288 101.28 18.288C100.757 18.288 100.33 18.4213 99.9995 18.688C99.6688 18.9547 99.5035 19.3387 99.5035 19.84C99.5035 20.1813 99.6048 20.464 99.8075 20.688C100.021 20.9013 100.288 21.072 100.608 21.2C100.928 21.328 101.365 21.4667 101.92 21.616C102.656 21.8187 103.253 22.0213 103.712 22.224C104.181 22.4267 104.576 22.7413 104.896 23.168C105.226 23.584 105.392 24.144 105.392 24.848C105.392 25.4133 105.237 25.9467 104.928 26.448C104.629 26.9493 104.186 27.3547 103.6 27.664C103.024 27.9627 102.341 28.112 101.552 28.112ZM114.728 16.88V18.368H111.768V28H109.944V18.368H106.968V16.88H114.728ZM118.399 16.88V28H116.575V16.88H118.399ZM126.57 28L124.01 23.552H122.618V28H120.794V16.88H124.634C125.487 16.88 126.207 17.0293 126.794 17.328C127.391 17.6267 127.834 18.0267 128.122 18.528C128.42 19.0293 128.57 19.5893 128.57 20.208C128.57 20.9333 128.356 21.5947 127.93 22.192C127.514 22.7787 126.868 23.1787 125.994 23.392L128.746 28H126.57ZM122.618 22.096H124.634C125.316 22.096 125.828 21.9253 126.17 21.584C126.522 21.2427 126.698 20.784 126.698 20.208C126.698 19.632 126.527 19.184 126.186 18.864C125.844 18.5333 125.327 18.368 124.634 18.368H122.618V22.096ZM141.763 25.728H137.107L136.307 28H134.403L138.387 16.864H140.499L144.483 28H142.563L141.763 25.728ZM141.251 24.24L139.443 19.072L137.619 24.24H141.251ZM154.264 20.08C153.976 19.5253 153.576 19.1093 153.064 18.832C152.552 18.544 151.96 18.4 151.288 18.4C150.552 18.4 149.896 18.5653 149.32 18.896C148.744 19.2267 148.29 19.696 147.96 20.304C147.64 20.912 147.48 21.616 147.48 22.416C147.48 23.216 147.64 23.9253 147.96 24.544C148.29 25.152 148.744 25.6213 149.32 25.952C149.896 26.2827 150.552 26.448 151.288 26.448C152.28 26.448 153.085 26.1707 153.704 25.616C154.322 25.0613 154.701 24.3093 154.84 23.36H150.664V21.904H156.792V23.328C156.674 24.192 156.365 24.9867 155.864 25.712C155.373 26.4373 154.728 27.0187 153.928 27.456C153.138 27.8827 152.258 28.096 151.288 28.096C150.242 28.096 149.288 27.856 148.424 27.376C147.56 26.8853 146.872 26.208 146.36 25.344C145.858 24.48 145.608 23.504 145.608 22.416C145.608 21.328 145.858 20.352 146.36 19.488C146.872 18.624 147.56 17.952 148.424 17.472C149.298 16.9813 150.253 16.736 151.288 16.736C152.472 16.736 153.522 17.0293 154.44 17.616C155.368 18.192 156.04 19.0133 156.456 20.08H154.264ZM163.663 28.112C162.628 28.112 161.673 27.872 160.799 27.392C159.935 26.9013 159.247 26.224 158.735 25.36C158.233 24.4853 157.983 23.504 157.983 22.416C157.983 21.328 158.233 20.352 158.735 19.488C159.247 18.624 159.935 17.952 160.799 17.472C161.673 16.9813 162.628 16.736 163.663 16.736C164.708 16.736 165.663 16.9813 166.527 17.472C167.401 17.952 168.089 18.624 168.591 19.488C169.092 20.352 169.343 21.328 169.343 22.416C169.343 23.504 169.092 24.4853 168.591 25.36C168.089 26.224 167.401 26.9013 166.527 27.392C165.663 27.872 164.708 28.112 163.663 28.112ZM163.663 26.528C164.399 26.528 165.055 26.3627 165.631 26.032C166.207 25.6907 166.655 25.2107 166.975 24.592C167.305 23.9627 167.471 23.2373 167.471 22.416C167.471 21.5947 167.305 20.8747 166.975 20.256C166.655 19.6373 166.207 19.1627 165.631 18.832C165.055 18.5013 164.399 18.336 163.663 18.336C162.927 18.336 162.271 18.5013 161.695 18.832C161.119 19.1627 160.665 19.6373 160.335 20.256C160.015 20.8747 159.855 21.5947 159.855 22.416C159.855 23.2373 160.015 23.9627 160.335 24.592C160.665 25.2107 161.119 25.6907 161.695 26.032C162.271 26.3627 162.927 26.528 163.663 26.528ZM176.914 28L174.354 23.552H172.962V28H171.138V16.88H174.978C175.831 16.88 176.551 17.0293 177.138 17.328C177.735 17.6267 178.178 18.0267 178.466 18.528C178.764 19.0293 178.914 19.5893 178.914 20.208C178.914 20.9333 178.7 21.5947 178.274 22.192C177.858 22.7787 177.212 23.1787 176.338 23.392L179.09 28H176.914ZM172.962 22.096H174.978C175.66 22.096 176.172 21.9253 176.514 21.584C176.866 21.2427 177.042 20.784 177.042 20.208C177.042 19.632 176.871 19.184 176.53 18.864C176.188 18.5333 175.671 18.368 174.978 18.368H172.962V22.096ZM187.951 25.728H183.295L182.495 28H180.591L184.575 16.864H186.687L190.671 28H188.751L187.951 25.728ZM187.439 24.24L185.631 19.072L183.807 24.24H187.439Z" fill="#F9F9F9"/>
<path d="M36.1667 16.5L47.8334 24L36.1667 31.5V16.5Z" stroke="#F9F9F9" stroke-width="2" stroke-linecap="round" stroke-linejoin="round"/>
</svg>
