<svg width="500" height="353" viewBox="0 0 500 353" fill="none" xmlns="http://www.w3.org/2000/svg">
<path d="M500 307.642H0V307.892H500V307.642Z" fill="#EBEBEB"/>
<path d="M449.9 323.732H416.78V323.982H449.9V323.732Z" fill="#EBEBEB"/>
<path d="M331.22 326.452H322.53V326.702H331.22V326.452Z" fill="#EBEBEB"/>
<path d="M415.78 314.452H396.59V314.702H415.78V314.452Z" fill="#EBEBEB"/>
<path d="M95.65 316.132H52.46V316.382H95.65V316.132Z" fill="#EBEBEB"/>
<path d="M110.89 316.132H104.56V316.382H110.89V316.132Z" fill="#EBEBEB"/>
<path d="M225.15 320.352H131.47V320.602H225.15V320.352Z" fill="#EBEBEB"/>
<path d="M131 304.382H61.93C69.42 297.502 87.05 297.922 87.05 297.922C87.05 297.922 74.82 284.792 79.33 276.362C83.84 267.932 95.92 286.412 95.92 286.412C95.92 286.412 80.73 258.922 86.38 252.072C92.03 245.222 107.22 282.172 107.22 282.172C107.22 282.172 97.99 243.062 103.54 241.952C109.09 240.842 114.89 279.042 114.89 279.042C114.89 279.042 112.89 244.122 117.56 245.122C122.23 246.122 120 291.682 120 291.682C120 291.682 124.7 268.432 126.7 275.852C128.7 283.272 124.7 299.162 124.7 299.162C126.216 299.074 127.709 299.563 128.878 300.532C130.047 301.5 130.805 302.876 131 304.382V304.382Z" fill="#E0E0E0"/>
<path d="M167.24 304.382H256.93C247.21 295.452 224.31 296.002 224.31 296.002C224.31 296.002 240.19 278.932 234.31 268.002C228.43 257.072 212.78 281.002 212.78 281.002C212.78 281.002 232.5 245.302 225.16 236.402C217.82 227.502 198.11 275.502 198.11 275.502C198.11 275.502 210.11 224.712 202.88 223.272C195.65 221.832 188.15 271.432 188.15 271.432C188.15 271.432 190.74 226.092 184.67 227.382C178.6 228.672 181.55 287.852 181.55 287.852C181.55 287.852 175.45 257.662 172.84 267.292C170.23 276.922 175.45 297.562 175.45 297.562C169.47 297.682 167.74 301.792 167.24 304.382Z" fill="#E0E0E0"/>
<path d="M249.48 304.382H318.55C311.06 297.502 293.43 297.922 293.43 297.922C293.43 297.922 305.66 284.792 301.15 276.362C296.64 267.932 284.56 286.412 284.56 286.412C284.56 286.412 299.75 258.922 294.1 252.072C288.45 245.222 273.26 282.172 273.26 282.172C273.26 282.172 282.49 243.062 276.94 241.952C271.39 240.842 265.59 279.042 265.59 279.042C265.59 279.042 267.59 244.122 262.92 245.122C258.25 246.122 260.51 291.682 260.51 291.682C260.51 291.682 255.81 268.432 253.81 275.852C251.81 283.272 255.81 299.162 255.81 299.162C254.289 299.066 252.789 299.551 251.613 300.521C250.438 301.49 249.675 302.871 249.48 304.382V304.382Z" fill="#E0E0E0"/>
<path d="M114.59 304.382C111.53 257.382 104.16 137.112 105.2 86.2319L100.29 85.9019C100.29 85.9019 95.39 239.182 98.07 304.382H114.59Z" fill="#E0E0E0"/>
<path d="M103.89 107.252L116.5 97.002L117.76 90.642L125.33 79.092L126.96 78.502L119.49 91.562L119.19 95.942L130.54 93.862L135.29 85.092L140.3 81.162L141.05 82.462L136.78 86.272L133.28 95.632L117.74 99.542L101.53 119.192L103.89 107.252Z" fill="#E0E0E0"/>
<path d="M101.42 97.7219L100.81 102.022L87.18 88.9719L78.78 87.312L72.3 82.8419L72.74 82.4119L78.9 86.3319L85.72 86.6519L79.26 78.6219L72.9 73.9919L73.33 73.7219L79.71 77.8519L90.21 88.4819L89.17 78.7619L86.74 74.6319L86.5 73.4919L89.56 77.9919L97.54 75.3619L98.21 75.8619L90.02 78.7719L91.5 89.4919L101.42 97.7219Z" fill="#E0E0E0"/>
<path d="M146.79 80.9818C147.1 79.2418 144.34 77.9818 141.36 77.7918C139.165 77.6492 136.987 77.3145 134.85 76.7918C135.13 76.1718 134.93 75.4218 135.33 74.3418C136.2 71.9818 135.73 70.3918 133.12 68.3418C130.51 66.2918 127.88 66.6918 122.12 67.3418C116.36 67.9918 117.2 65.4218 112.04 62.9518C106.88 60.4818 88.91 61.5118 85.6 63.8118C83.6 65.1918 75.85 64.3818 73.7 67.7618C71.55 71.1418 58.84 70.2418 60.52 73.2418C62.2 76.2418 64.23 76.3118 63.89 81.2418C63.55 86.1718 68.02 84.5218 72.48 86.3718C76.94 88.2218 76.34 84.7518 79.26 84.5318C82.18 84.3118 81.37 84.0118 84.37 82.6218C87.37 81.2318 86.95 82.9818 91.71 85.3718C94.33 86.6918 95.3 85.0918 96.11 83.3718C96.6 84.4818 96.05 86.1018 97.03 87.9818C97.82 89.4818 100.97 89.8218 103.97 89.5418C107.26 95.7818 108.67 90.5418 112.79 91.0218C117.14 91.4918 123.68 88.0218 126.74 87.6918C129.8 87.3618 130.01 86.5418 133.17 89.0018C136.33 91.4618 149.98 86.6618 151.27 84.1918C152.56 81.7218 146.48 82.7218 146.79 80.9818Z" fill="#E0E0E0"/>
<path d="M203 304.382C200.1 258.432 195 169.732 195.77 130.152L191.57 129.872C191.57 129.872 187.92 243.752 189.29 304.382H203Z" fill="#E0E0E0"/>
<path d="M194.62 148.132L205.4 139.362L206.48 133.922L212.95 124.052L214.34 123.542L207.96 134.702L207.7 138.462L217.41 136.672L221.47 129.182L225.76 125.812L226.4 126.922L222.75 130.182L219.75 138.192L206.46 141.532L192.59 158.332L194.62 148.132Z" fill="#E0E0E0"/>
<path d="M192.5 139.982L191.98 143.652L180.32 132.492L173.14 131.072L167.6 127.252L167.98 126.882L173.24 130.232L179.07 130.512L173.55 123.642L168.11 119.682L168.48 119.452L173.94 122.982L182.92 132.072L182.03 123.762L179.94 120.222L179.74 119.252L182.36 123.102L189.19 120.852L189.76 121.282L182.76 123.772L184.02 132.942L192.5 139.982Z" fill="#E0E0E0"/>
<path d="M231.31 125.662C231.57 124.172 229.21 123.112 226.67 122.932C224.788 122.805 222.92 122.511 221.09 122.052C221.33 121.522 221.16 120.872 221.5 119.952C222.25 117.952 221.85 116.582 219.62 114.822C217.39 113.062 215.13 113.412 210.24 113.982C205.35 114.552 206.04 112.342 201.62 110.232C197.2 108.122 181.84 109.002 179.01 110.962C177.31 112.142 170.67 111.462 168.83 114.352C166.99 117.242 156.09 116.502 157.53 119.012C158.97 121.522 160.69 121.642 160.41 125.842C160.13 130.042 163.93 128.642 167.75 130.222C171.57 131.802 171.06 128.842 173.55 128.652C176.04 128.462 175.36 128.212 177.92 127.022C180.48 125.832 180.13 127.322 184.2 129.372C186.44 130.502 187.27 129.132 187.97 127.702C188.38 128.652 187.91 130.042 188.75 131.642C189.42 132.932 192.12 133.222 194.68 132.982C197.49 138.322 198.68 133.862 202.23 134.252C205.94 134.652 211.54 131.712 214.16 131.402C216.78 131.092 216.95 130.402 219.66 132.522C222.37 134.642 234.04 130.522 235.14 128.402C236.24 126.282 231 127.152 231.31 125.662Z" fill="#E0E0E0"/>
<path d="M169.82 258.552C168.89 251.972 151.38 116.682 147.41 32.7419H140.85C140.85 32.7419 144.54 202.332 155.53 264.152L169.82 258.552Z" fill="#E6E6E6"/>
<path d="M86.92 304.382H261.05C242.16 294.082 197.72 294.722 197.72 294.722C197.72 294.722 228.55 275.052 217.18 262.452C205.81 249.852 175.37 277.452 175.37 277.452C175.37 277.452 213.65 236.312 199.37 226.052C185.09 215.792 146.84 271.112 146.84 271.112C146.84 271.112 170.09 212.572 156.11 210.912C142.13 209.252 127.5 266.422 127.5 266.422C127.5 266.422 132.5 214.162 120.75 215.652C109 217.142 114.68 285.342 114.68 285.342C114.68 285.342 102.84 250.552 97.78 261.642C92.72 272.732 102.86 296.532 102.86 296.532C91.23 296.662 87.88 301.402 86.92 304.382Z" fill="#F0F0F0"/>
<path d="M147.57 60.8319L163.43 46.0619L164.53 37.4819L173.57 21.4219L175.68 20.4919L166.91 38.5419V44.4019L181.83 40.6119L187.37 28.5219L193.68 22.8219L194.79 24.4819L189.45 29.9419L185.64 42.7219L165.31 49.3319L145.49 76.9319L147.57 60.8319Z" fill="#E6E6E6"/>
<path d="M143.41 48.3819L142.99 54.1419L123.67 38.0119L112.34 36.5519L103.31 31.1819L103.87 30.5719L112.41 35.2319L121.52 35.0619L112.19 24.9419L103.31 19.3519L103.87 18.9519L112.73 23.8819L127.66 37.0819L125.4 24.2319L121.79 18.9519L121.37 17.4619L125.86 23.1819L136.24 18.9519L137.17 19.5619L126.54 24.1819L129.47 38.3119L143.41 48.3819Z" fill="#E6E6E6"/>
<path d="M202.3 22.0019C202.55 19.6619 198.77 18.2519 194.79 18.2519C191.853 18.2415 188.923 17.9805 186.03 17.4719C186.34 16.6119 186.03 15.6219 186.44 14.1519C187.39 10.9419 186.63 8.86193 182.96 6.37193C179.29 3.88193 175.83 4.64193 168.28 6.05193C160.73 7.46193 161.57 3.94193 154.47 1.12193C147.37 -1.69807 123.56 1.29194 119.36 4.64194C116.84 6.64194 106.43 6.28193 103.87 10.9819C101.31 15.6819 84.27 15.6719 86.77 19.4219C89.27 23.1719 92 23.1819 92 29.7519C92 36.3219 97.78 33.7519 103.89 35.7519C110 37.7519 108.89 33.2519 112.75 32.6919C116.61 32.1319 115.51 31.8119 119.38 29.6919C123.25 27.5719 122.84 29.9319 129.38 32.6919C132.99 34.2119 134.14 32.0019 135.07 29.6919C135.81 31.1319 135.24 33.3419 136.71 35.7519C137.89 37.6819 142.12 37.8419 146.08 37.2019C151.02 45.2019 152.43 38.2019 157.96 38.3819C163.78 38.6119 172.18 33.4519 176.23 32.6919C180.28 31.9319 180.47 30.8719 184.91 33.8519C189.35 36.8319 207.07 29.2319 208.56 25.8519C210.05 22.4719 202.05 24.3519 202.3 22.0019Z" fill="#F0F0F0"/>
<path d="M426 31.322C426 29.5265 425.287 27.8045 424.017 26.5349C422.747 25.2652 421.025 24.552 419.23 24.552C418.572 24.5515 417.919 24.6492 417.29 24.842C417.587 22.8062 417.442 20.7305 416.866 18.7555C416.29 16.7806 415.296 14.9528 413.95 13.3961C412.605 11.8395 410.941 10.5905 409.071 9.73397C407.2 8.87743 405.167 8.43338 403.11 8.43197C402.224 8.43398 401.34 8.51767 400.47 8.68197C399.059 6.35895 396.931 4.55809 394.406 3.5514C391.882 2.54471 389.098 2.38686 386.476 3.10169C383.854 3.81652 381.535 5.36521 379.871 7.51384C378.207 9.66248 377.287 12.2944 377.25 15.012H377.04C375.495 14.9665 373.957 15.2315 372.517 15.7912C371.076 16.351 369.763 17.1941 368.654 18.2706C367.545 19.3472 366.664 20.6353 366.062 22.0586C365.46 23.4819 365.15 25.0116 365.15 26.557C365.15 28.1023 365.46 29.632 366.062 31.0553C366.664 32.4787 367.545 33.7668 368.654 34.8433C369.763 35.9199 371.076 36.763 372.517 37.3227C373.957 37.8825 375.495 38.1474 377.04 38.102H419.42C421.184 38.0524 422.859 37.316 424.088 36.0496C425.317 34.7831 426.003 33.0868 426 31.322Z" fill="#F5F5F5"/>
<path d="M279.92 94.522C279.92 93.6334 279.745 92.7535 279.404 91.9327C279.064 91.1119 278.565 90.3662 277.936 89.7384C277.308 89.1105 276.561 88.6128 275.74 88.2737C274.919 87.9345 274.039 87.7607 273.15 87.762C272.493 87.7624 271.84 87.8567 271.21 88.042C271.507 86.0037 271.362 83.9254 270.784 81.9483C270.206 79.9712 269.209 78.1419 267.861 76.5848C266.512 75.0276 264.844 73.7793 262.97 72.9246C261.096 72.0699 259.06 71.6291 257 71.632C256.114 71.634 255.23 71.7177 254.36 71.882C252.94 69.5733 250.809 67.7876 248.287 66.7927C245.766 65.7978 242.99 65.6474 240.376 66.3641C237.761 67.0807 235.45 68.6258 233.789 70.7674C232.127 72.909 231.205 75.5317 231.16 78.242H231C229.455 78.1965 227.917 78.4615 226.477 79.0212C225.036 79.5809 223.723 80.4241 222.614 81.5006C221.505 82.5772 220.624 83.8652 220.022 85.2886C219.42 86.7119 219.11 88.2416 219.11 89.787C219.11 91.3323 219.42 92.862 220.022 94.2853C220.624 95.7087 221.505 96.9968 222.614 98.0733C223.723 99.1499 225.036 99.993 226.477 100.553C227.917 101.112 229.455 101.377 231 101.332H273.38C275.143 101.275 276.814 100.53 278.036 99.2579C279.258 97.9856 279.934 96.286 279.92 94.522Z" fill="#F5F5F5"/>
<path d="M437.15 177.932C437.15 176.136 436.437 174.414 435.167 173.145C433.898 171.875 432.176 171.162 430.38 171.162C429.723 171.161 429.069 171.259 428.44 171.452C428.737 169.416 428.592 167.34 428.016 165.365C427.44 163.391 426.446 161.563 425.101 160.006C423.755 158.449 422.091 157.2 420.221 156.344C418.35 155.487 416.317 155.043 414.26 155.042C413.374 155.044 412.49 155.128 411.62 155.292C410.209 152.969 408.081 151.168 405.556 150.161C403.032 149.155 400.248 148.997 397.626 149.712C395.004 150.427 392.685 151.975 391.021 154.124C389.357 156.272 388.437 158.904 388.4 161.622H388.19C385.129 161.622 382.194 162.838 380.03 165.002C377.866 167.166 376.65 170.101 376.65 173.162C376.65 176.223 377.866 179.158 380.03 181.322C382.194 183.486 385.129 184.702 388.19 184.702H430.57C432.332 184.652 434.006 183.917 435.235 182.653C436.464 181.389 437.151 179.695 437.15 177.932Z" fill="#F5F5F5"/>
<path d="M98.81 147.392C98.8074 146.308 98.3756 145.269 97.6092 144.503C96.8427 143.736 95.8039 143.304 94.72 143.302C94.3201 143.305 93.9226 143.365 93.54 143.482C93.7189 142.254 93.6322 141.002 93.2856 139.81C92.9391 138.619 92.3408 137.516 91.5312 136.575C90.7216 135.635 89.7196 134.879 88.5928 134.359C87.4661 133.839 86.2409 133.567 85 133.562C84.4664 133.561 83.934 133.611 83.41 133.712C82.5494 132.325 81.2638 131.254 79.7448 130.658C78.2258 130.061 76.5548 129.972 74.9807 130.402C73.4067 130.833 72.0139 131.761 71.0101 133.047C70.0062 134.334 69.445 135.91 69.41 137.542H69.28C67.4235 137.542 65.643 138.279 64.3303 139.592C63.0175 140.905 62.28 142.685 62.28 144.542C62.28 146.398 63.0175 148.179 64.3303 149.492C65.643 150.804 67.4235 151.542 69.28 151.542H94.83C95.906 151.513 96.9273 151.061 97.6724 150.284C98.4174 149.507 98.8262 148.468 98.81 147.392V147.392Z" fill="#F5F5F5"/>
<path d="M315.73 18.9719C315.73 18.3347 315.581 17.7063 315.296 17.1367C315.01 16.5672 314.595 16.0723 314.084 15.6915C313.573 15.3107 312.98 15.0546 312.353 14.9436C311.725 14.8325 311.081 14.8696 310.47 15.0519C310.649 13.8215 310.562 12.5669 310.213 11.3733C309.865 10.1796 309.264 9.07489 308.451 8.13398C307.638 7.19306 306.633 6.438 305.502 5.92002C304.372 5.40203 303.143 5.13325 301.9 5.1319C301.363 5.13579 300.828 5.18598 300.3 5.2819C299.439 3.89541 298.154 2.82413 296.635 2.22774C295.116 1.63136 293.445 1.5418 291.871 1.97241C290.297 2.40302 288.904 3.33075 287.9 4.61731C286.896 5.90388 286.335 7.48041 286.3 9.11191H286.18C284.323 9.11191 282.543 9.8494 281.23 11.1622C279.918 12.4749 279.18 14.2554 279.18 16.1119C279.18 17.9684 279.918 19.7489 281.23 21.0617C282.543 22.3744 284.323 23.1119 286.18 23.1119H311.8C312.866 23.0728 313.875 22.6175 314.61 21.8436C315.344 21.0697 315.746 20.0388 315.73 18.9719Z" fill="#F5F5F5"/>
<path d="M250 352.802C357.082 352.802 443.89 347.734 443.89 341.482C443.89 335.23 357.082 330.162 250 330.162C142.917 330.162 56.11 335.23 56.11 341.482C56.11 347.734 142.917 352.802 250 352.802Z" fill="#F5F5F5"/>
<path d="M372.25 325.242C372.25 325.242 369 325.072 368.68 316.242C368.36 307.412 374.08 304.982 378.48 306.072C378.48 306.072 377.84 299.742 380.69 299.982C383.54 300.222 383.35 304.432 383.35 304.432C383.35 304.432 384.35 295.432 388.22 295.432C392.09 295.432 388.22 306.042 388.22 306.042C388.22 306.042 393.61 303.452 395.59 306.042C397.57 308.632 393.12 311.662 393.12 311.662C393.12 311.662 400.12 313.942 397.18 321.182C397.18 321.182 402.05 321.942 403.41 325.182C403.41 325.182 403.02 318.632 404.78 319.072C406.54 319.512 406.14 325.252 406.14 325.252C406.14 325.252 409.06 318.952 411.59 321.172C414.12 323.392 410.43 328.742 410.43 328.742C410.43 328.742 415.3 326.382 416.07 329.512C416.84 332.642 413.35 333.812 413.35 333.812C413.35 333.812 418.41 332.642 418.41 338.452C418.41 338.452 428.15 337.522 430.49 342.742H372.49L372.25 325.242Z" fill="#0F9AFE"/>
<path opacity="0.4" d="M372.25 325.242C372.25 325.242 369 325.072 368.68 316.242C368.36 307.412 374.08 304.982 378.48 306.072C378.48 306.072 377.84 299.742 380.69 299.982C383.54 300.222 383.35 304.432 383.35 304.432C383.35 304.432 384.35 295.432 388.22 295.432C392.09 295.432 388.22 306.042 388.22 306.042C388.22 306.042 393.61 303.452 395.59 306.042C397.57 308.632 393.12 311.662 393.12 311.662C393.12 311.662 400.12 313.942 397.18 321.182C397.18 321.182 402.05 321.942 403.41 325.182C403.41 325.182 403.02 318.632 404.78 319.072C406.54 319.512 406.14 325.252 406.14 325.252C406.14 325.252 409.06 318.952 411.59 321.172C414.12 323.392 410.43 328.742 410.43 328.742C410.43 328.742 415.3 326.382 416.07 329.512C416.84 332.642 413.35 333.812 413.35 333.812C413.35 333.812 418.41 332.642 418.41 338.452C418.41 338.452 428.15 337.522 430.49 342.742H372.49L372.25 325.242Z" fill="white"/>
<path d="M342.61 234.242C341.21 257.242 333.61 342.242 333.61 342.242L388.52 342.752L373.08 189.162L397.72 181.642L402.89 166.712L423.7 154.942L433.87 139.322L429.94 138.322L418.71 152.742L405.61 155.592L411.22 142.302H405L389.4 173.082L373.4 176.362L371.94 120.362C355.86 127.872 350.72 115.362 350.72 115.362C350.72 115.362 346.56 203.022 344.22 209.642C341.85 208.323 339.645 206.729 337.65 204.892C332.224 200.062 327.51 194.486 323.65 188.332L322.65 186.682H317.65L342.61 234.242Z" fill="#0F9AFE"/>
<g opacity="0.2">
<path opacity="0.2" d="M342.61 234.242C341.21 257.242 333.61 342.242 333.61 342.242L388.52 342.752L373.08 189.162L397.72 181.642L402.89 166.712L423.7 154.942L433.87 139.322L429.94 138.322L418.71 152.742L405.61 155.592L411.22 142.302H405L389.4 173.082L373.4 176.362L371.94 120.362C355.86 127.872 350.72 115.362 350.72 115.362C350.72 115.362 346.56 203.022 344.22 209.642C341.85 208.323 339.645 206.729 337.65 204.892C332.224 200.062 327.51 194.486 323.65 188.332L322.65 186.682H317.65L342.61 234.242Z" fill="black"/>
</g>
<path opacity="0.1" d="M400.49 162.562L393.8 175.462L372.87 180.762C372.87 180.762 372.94 177.472 373.28 173.252L373.37 176.412L389.37 173.132L405 142.352H411.24L405.63 155.642L418.73 152.792L429.96 138.372L430.51 138.502L421.86 151.592L400.49 162.562Z" fill="black"/>
<path d="M370.36 266.802L375.3 342.632L366.59 342.552V282.702L370.36 266.802Z" fill="#0F9AFE"/>
<path d="M342.61 234.242L317.61 186.732H322.61L323.61 188.382C327.47 194.536 332.184 200.112 337.61 204.942C339.605 206.779 341.81 208.373 344.18 209.692C346.52 203.072 350.68 115.412 350.68 115.412C351.487 117.126 352.662 118.642 354.121 119.852C355.579 121.061 357.286 121.935 359.12 122.412C359.353 150.725 359.59 179.039 359.83 207.352C361.6 203.352 363.14 199.462 363.29 195.272C363.82 206.872 364.53 219.342 364.48 230.792L354.86 266.282L353 342.422L333.64 342.242C333.64 342.242 341.21 257.242 342.61 234.242Z" fill="#0F9AFE"/>
<path d="M280.81 85.9019C272.81 88.7619 267.28 97.2319 267.53 105.742C267.761 110.004 269.183 114.115 271.635 117.608C274.087 121.102 277.47 123.836 281.4 125.502C285.372 127.065 289.676 127.592 293.907 127.034C298.139 126.476 302.159 124.851 305.59 122.312C305.94 130.482 311.52 139.362 319.31 141.832C323.245 143.01 327.443 142.985 331.363 141.759C335.283 140.533 338.748 138.162 341.31 134.952C362.31 148.142 435.81 153.032 448.73 96.8618C451.39 85.2618 444.93 72.9819 435.46 65.7719C425.99 58.5619 413.95 55.6119 402.14 54.1619C390.93 36.3119 366.07 26.5619 345.14 29.3619C324.21 32.1619 305.68 47.9718 299.57 68.1418C278.28 68.2418 280.5 87.3319 280.81 85.9019Z" fill="#0F9AFE"/>
<g opacity="0.2">
<path opacity="0.2" d="M280.81 85.9019C272.81 88.7619 267.28 97.2319 267.53 105.742C267.761 110.004 269.183 114.115 271.635 117.608C274.087 121.102 277.47 123.836 281.4 125.502C285.372 127.065 289.676 127.592 293.907 127.034C298.139 126.476 302.159 124.851 305.59 122.312C305.94 130.482 311.52 139.362 319.31 141.832C323.245 143.01 327.443 142.985 331.363 141.759C335.283 140.533 338.748 138.162 341.31 134.952C362.31 148.142 435.81 153.032 448.73 96.8618C451.39 85.2618 444.93 72.9819 435.46 65.7719C425.99 58.5619 413.95 55.6119 402.14 54.1619C390.93 36.3119 366.07 26.5619 345.14 29.3619C324.21 32.1619 305.68 47.9718 299.57 68.1418C278.28 68.2418 280.5 87.3319 280.81 85.9019Z" fill="black"/>
</g>
<path d="M306.74 196.392C307.935 198.162 309.609 199.556 311.567 200.409C313.526 201.262 315.686 201.539 317.796 201.209C319.906 200.878 321.879 199.953 323.482 198.542C325.086 197.131 326.254 195.293 326.85 193.242C331.85 196.742 339.51 195.882 344.55 192.472C347.092 190.751 349.049 188.297 350.162 185.436C351.275 182.576 351.49 179.444 350.778 176.458C350.067 173.472 348.464 170.774 346.181 168.722C343.898 166.67 341.045 165.362 338 164.972C337.758 162.186 336.87 159.494 335.407 157.111C333.944 154.728 331.945 152.718 329.57 151.242C327.081 149.716 324.283 148.766 321.38 148.46C318.477 148.154 315.542 148.499 312.79 149.472C309.569 148.946 306.269 149.195 303.163 150.199C300.057 151.202 297.235 152.931 294.93 155.242C291.56 158.512 289.32 163.152 289.71 167.832C290.1 172.512 293.52 177.002 298.13 177.892C297.306 179.587 296.838 181.434 296.755 183.317C296.673 185.2 296.977 187.081 297.65 188.842C299.14 192.322 303.16 195.062 306.74 196.392Z" fill="#0F9AFE"/>
<path opacity="0.2" d="M306.74 196.392C307.935 198.162 309.609 199.556 311.567 200.409C313.526 201.262 315.686 201.539 317.796 201.209C319.906 200.878 321.879 199.953 323.482 198.542C325.086 197.131 326.254 195.293 326.85 193.242C331.85 196.742 339.51 195.882 344.55 192.472C347.092 190.751 349.049 188.297 350.162 185.436C351.275 182.576 351.49 179.444 350.778 176.458C350.067 173.472 348.464 170.774 346.181 168.722C343.898 166.67 341.045 165.362 338 164.972C337.758 162.186 336.87 159.494 335.407 157.111C333.944 154.728 331.945 152.718 329.57 151.242C327.081 149.716 324.283 148.766 321.38 148.46C318.477 148.154 315.542 148.499 312.79 149.472C309.569 148.946 306.269 149.195 303.163 150.199C300.057 151.202 297.235 152.931 294.93 155.242C291.56 158.512 289.32 163.152 289.71 167.832C290.1 172.512 293.52 177.002 298.13 177.892C297.306 179.587 296.838 181.434 296.755 183.317C296.673 185.2 296.977 187.081 297.65 188.842C299.14 192.322 303.16 195.062 306.74 196.392Z" fill="black"/>
<path d="M412.56 111.472C410.541 110.775 408.366 110.668 406.289 111.163C404.212 111.658 402.318 112.734 400.831 114.266C399.343 115.798 398.322 117.722 397.888 119.812C397.454 121.903 397.625 124.074 398.38 126.072C392.3 126.262 386.67 131.572 384.69 137.322C383.689 140.22 383.595 143.355 384.419 146.308C385.243 149.262 386.946 151.894 389.303 153.856C391.66 155.818 394.558 157.015 397.612 157.29C400.666 157.564 403.731 156.902 406.4 155.392C408.27 157.473 410.599 159.09 413.203 160.115C415.807 161.139 418.613 161.542 421.4 161.292C424.307 161.016 427.116 160.095 429.622 158.597C432.129 157.099 434.27 155.061 435.89 152.632C438.782 151.123 441.273 148.947 443.158 146.285C445.043 143.623 446.267 140.551 446.73 137.322C447.46 132.692 446.47 127.632 443.34 124.122C440.21 120.612 434.79 119.122 430.57 121.122C430.206 119.279 429.469 117.53 428.404 115.983C427.34 114.435 425.97 113.121 424.38 112.122C421.09 110.172 416.22 110.392 412.56 111.472Z" fill="#0F9AFE"/>
<path opacity="0.1" d="M412.56 111.472C410.541 110.775 408.366 110.668 406.289 111.163C404.212 111.658 402.318 112.734 400.831 114.266C399.343 115.798 398.322 117.722 397.888 119.812C397.454 121.903 397.625 124.074 398.38 126.072C392.3 126.262 386.67 131.572 384.69 137.322C383.689 140.22 383.595 143.355 384.419 146.308C385.243 149.262 386.946 151.894 389.303 153.856C391.66 155.818 394.558 157.015 397.612 157.29C400.666 157.564 403.731 156.902 406.4 155.392C408.27 157.473 410.599 159.09 413.203 160.115C415.807 161.139 418.613 161.542 421.4 161.292C424.307 161.016 427.116 160.095 429.622 158.597C432.129 157.099 434.27 155.061 435.89 152.632C438.782 151.123 441.273 148.947 443.158 146.285C445.043 143.623 446.267 140.551 446.73 137.322C447.46 132.692 446.47 127.632 443.34 124.122C440.21 120.612 434.79 119.122 430.57 121.122C430.206 119.279 429.469 117.53 428.404 115.983C427.34 114.435 425.97 113.121 424.38 112.122C421.09 110.172 416.22 110.392 412.56 111.472Z" fill="black"/>
<path d="M375.45 340.532C375.45 340.532 355.28 327.462 359.11 325.242C362.94 323.022 376.38 336.092 376.38 336.092C376.38 336.092 361.52 314.352 365.19 309.992C368.86 305.632 378.75 327.712 378.75 327.712C378.75 327.712 372.03 302.472 376.75 299.712C381.47 296.952 383.22 325.002 383.22 325.002C383.22 325.002 385.07 294.602 393.77 295.002C402.47 295.402 389.77 325.002 389.77 325.002C389.77 325.002 402.04 307.412 406.39 312.402C410.74 317.392 392.54 331.402 392.54 331.402C392.54 331.402 406.15 325.012 407.06 329.752C407.97 334.492 392.06 339.542 392.06 339.542C392.06 339.542 397.17 341.012 398.36 342.732H371.18C371.18 342.732 370.74 341.442 375.45 340.532Z" fill="#0F9AFE"/>
<path opacity="0.6" d="M375.45 340.532C375.45 340.532 355.28 327.462 359.11 325.242C362.94 323.022 376.38 336.092 376.38 336.092C376.38 336.092 361.52 314.352 365.19 309.992C368.86 305.632 378.75 327.712 378.75 327.712C378.75 327.712 372.03 302.472 376.75 299.712C381.47 296.952 383.22 325.002 383.22 325.002C383.22 325.002 385.07 294.602 393.77 295.002C402.47 295.402 389.77 325.002 389.77 325.002C389.77 325.002 402.04 307.412 406.39 312.402C410.74 317.392 392.54 331.402 392.54 331.402C392.54 331.402 406.15 325.012 407.06 329.752C407.97 334.492 392.06 339.542 392.06 339.542C392.06 339.542 397.17 341.012 398.36 342.732H371.18C371.18 342.732 370.74 341.442 375.45 340.532Z" fill="white"/>
<path d="M114.67 289.872C114.6 289.512 107.84 254.442 101.24 249.772C94.83 245.252 89.24 251.462 89.04 251.772L88.29 251.122C88.35 251.042 94.68 243.972 101.81 249.012C108.75 253.902 115.37 288.272 115.65 289.732L114.67 289.872Z" fill="#0F9AFE"/>
<path d="M112.16 292.762C112.16 292.522 109.66 268.412 101.89 261.012C100.01 259.222 98.17 258.522 96.42 258.932C92.26 259.882 89.69 266.612 89.67 266.682L88.73 266.332C88.84 266.032 91.51 259.032 96.19 257.952C98.29 257.472 100.44 258.252 102.58 260.282C110.58 267.942 113.06 291.662 113.16 292.662L112.16 292.762Z" fill="#0F9AFE"/>
<path d="M107.5 253.612C107.5 253.612 112.02 252.702 112.89 256.612C113.76 260.522 105.37 272.922 105.37 272.922C105.37 272.922 97.75 271.452 97.75 261.432C97.75 251.412 106 251.382 107.5 253.612Z" fill="#0F9AFE"/>
<path opacity="0.2" d="M107.5 253.612C107.5 253.612 112.02 252.702 112.89 256.612C113.76 260.522 105.37 272.922 105.37 272.922C105.37 272.922 97.75 271.452 97.75 261.432C97.75 251.412 106 251.382 107.5 253.612Z" fill="white"/>
<path d="M95.83 261.172C95.83 261.172 97.65 259.172 95.26 258.682C92.87 258.192 81.84 260.242 83.45 271.242C83.45 271.242 96.69 271.352 97.63 266.912C98.57 262.472 95.83 261.172 95.83 261.172Z" fill="#0F9AFE"/>
<path opacity="0.2" d="M95.83 261.172C95.83 261.172 97.65 259.172 95.26 258.682C92.87 258.192 81.84 260.242 83.45 271.242C83.45 271.242 96.69 271.352 97.63 266.912C98.57 262.472 95.83 261.172 95.83 261.172Z" fill="white"/>
<path d="M112.83 242.322C112.83 242.322 112.32 240.322 114.1 240.842C115.88 241.362 122.65 246.702 117.59 253.562C117.59 253.562 108.59 248.862 109.59 245.562C110.59 242.262 112.83 242.322 112.83 242.322Z" fill="#0F9AFE"/>
<path opacity="0.2" d="M112.83 242.322C112.83 242.322 112.32 240.322 114.1 240.842C115.88 241.362 122.65 246.702 117.59 253.562C117.59 253.562 108.59 248.862 109.59 245.562C110.59 242.262 112.83 242.322 112.83 242.322Z" fill="white"/>
<path d="M279.18 297.062L278.18 296.792C278.3 296.382 289.84 255.312 310.71 244.252L311.18 245.132C290.72 256.002 279.29 296.652 279.18 297.062Z" fill="#0F9AFE"/>
<path d="M279.37 292.422L278.46 292.002C278.67 291.572 298.58 248.052 291.72 234.232L292.61 233.792C299.69 248.032 280.2 290.622 279.37 292.422Z" fill="#0F9AFE"/>
<path d="M278.59 295.572L277.59 295.282C278.27 293.022 294.26 239.912 304.49 233.382L305.03 234.222C295.15 240.552 278.75 295.022 278.59 295.572Z" fill="#0F9AFE"/>
<path d="M295.32 235.942C295.32 235.942 298.32 236.732 298.75 234.942C299.18 233.152 290 224.432 280.75 229.222C280.75 229.222 282.15 237.882 288.07 240.222C293.99 242.562 295.32 235.942 295.32 235.942Z" fill="#0F9AFE"/>
<path opacity="0.2" d="M295.32 235.942C295.32 235.942 298.32 236.732 298.75 234.942C299.18 233.152 290 224.432 280.75 229.222C280.75 229.222 282.15 237.882 288.07 240.222C293.99 242.562 295.32 235.942 295.32 235.942Z" fill="white"/>
<path d="M302.29 233.752C302.29 233.752 299.21 234.012 299.1 232.132C298.99 230.252 309.55 223.302 317.79 229.632C317.79 229.632 314.89 237.912 308.65 239.222C302.41 240.532 302.29 233.752 302.29 233.752Z" fill="#0F9AFE"/>
<path opacity="0.2" d="M302.29 233.752C302.29 233.752 299.21 234.012 299.1 232.132C298.99 230.252 309.55 223.302 317.79 229.632C317.79 229.632 314.89 237.912 308.65 239.222C302.41 240.532 302.29 233.752 302.29 233.752Z" fill="white"/>
<path d="M312.06 242.062C312.06 242.062 310.7 239.712 313.13 239.752C315.56 239.792 325.95 244.032 322.08 254.442C322.08 254.442 309.08 251.792 309.08 247.262C309.08 242.732 312.06 242.062 312.06 242.062Z" fill="#0F9AFE"/>
<path opacity="0.2" d="M312.06 242.062C312.06 242.062 310.7 239.712 313.13 239.752C315.56 239.792 325.95 244.032 322.08 254.442C322.08 254.442 309.08 251.792 309.08 247.262C309.08 242.732 312.06 242.062 312.06 242.062Z" fill="white"/>
<path d="M302.41 247.942C302.41 247.942 302.98 245.942 304.26 247.302C305.54 248.662 308.73 256.642 300.93 260.062C300.93 260.062 295.48 251.502 297.98 249.062C300.48 246.622 302.41 247.942 302.41 247.942Z" fill="#0F9AFE"/>
<path opacity="0.2" d="M302.41 247.942C302.41 247.942 302.98 245.942 304.26 247.302C305.54 248.662 308.73 256.642 300.93 260.062C300.93 260.062 295.48 251.502 297.98 249.062C300.48 246.622 302.41 247.942 302.41 247.942Z" fill="white"/>
<path d="M91.93 248.622C91.93 248.622 92.93 246.782 91.06 246.872C89.19 246.962 81.33 250.442 84.54 258.332C84.54 258.332 94.42 256.002 94.31 252.532C94.2 249.062 91.93 248.622 91.93 248.622Z" fill="#0F9AFE"/>
<path opacity="0.2" d="M91.93 248.622C91.93 248.622 92.93 246.782 91.06 246.872C89.19 246.962 81.33 250.442 84.54 258.332C84.54 258.332 94.42 256.002 94.31 252.532C94.2 249.062 91.93 248.622 91.93 248.622Z" fill="white"/>
<path d="M267.68 316.772C267.68 316.772 261.08 316.512 260.43 303.202C259.78 289.892 271.43 286.342 280.34 287.972C280.34 287.972 279.03 278.492 284.83 278.842C290.63 279.192 290.23 285.522 290.23 285.522C290.23 285.522 292.23 272.082 300.12 272.072C308.01 272.062 300.12 287.972 300.12 287.972C300.12 287.972 311.07 284.092 315.12 287.972C319.17 291.852 310.12 296.392 310.12 296.392C310.12 296.392 324.31 299.802 318.38 310.662C318.38 310.662 328.27 311.802 331.04 316.662C331.04 316.662 330.25 306.852 333.81 307.512C337.37 308.172 336.57 316.772 336.57 316.772C336.57 316.772 342.51 307.322 347.65 310.662C352.79 314.002 345.28 322.002 345.28 322.002C345.28 322.002 355.17 318.462 356.75 323.152C358.33 327.842 351.21 329.602 351.21 329.602C351.21 329.602 361.5 327.842 361.5 336.552C361.5 336.552 381.28 335.152 386.03 342.972H268.08L267.68 316.772Z" fill="#0F9AFE"/>
<path opacity="0.4" d="M267.68 316.772C267.68 316.772 261.08 316.512 260.43 303.202C259.78 289.892 271.43 286.342 280.34 287.972C280.34 287.972 279.03 278.492 284.83 278.842C290.63 279.192 290.23 285.522 290.23 285.522C290.23 285.522 292.23 272.082 300.12 272.072C308.01 272.062 300.12 287.972 300.12 287.972C300.12 287.972 311.07 284.092 315.12 287.972C319.17 291.852 310.12 296.392 310.12 296.392C310.12 296.392 324.31 299.802 318.38 310.662C318.38 310.662 328.27 311.802 331.04 316.662C331.04 316.662 330.25 306.852 333.81 307.512C337.37 308.172 336.57 316.772 336.57 316.772C336.57 316.772 342.51 307.322 347.65 310.662C352.79 314.002 345.28 322.002 345.28 322.002C345.28 322.002 355.17 318.462 356.75 323.152C358.33 327.842 351.21 329.602 351.21 329.602C351.21 329.602 361.5 327.842 361.5 336.552C361.5 336.552 381.28 335.152 386.03 342.972H268.08L267.68 316.772Z" fill="white"/>
<path d="M130.06 316.772C130.06 316.772 134.93 316.512 135.41 303.202C135.89 289.892 127.32 286.342 120.72 287.972C120.72 287.972 121.72 278.492 117.41 278.842C113.1 279.192 113.41 285.522 113.41 285.522C113.41 285.522 111.95 272.082 106.11 272.072C100.27 272.062 106.11 287.972 106.11 287.972C106.11 287.972 98.04 284.092 95.11 287.972C92.18 291.852 98.82 296.392 98.82 296.392C98.82 296.392 88.35 299.802 92.73 310.662C92.73 310.662 85.43 311.802 83.39 316.662C83.39 316.662 83.97 306.852 81.39 307.512C78.81 308.172 79.39 316.772 79.39 316.772C79.39 316.772 75.02 307.322 71.22 310.662C67.42 314.002 72.97 322.002 72.97 322.002C72.97 322.002 65.68 318.462 64.51 323.152C63.34 327.842 68.6 329.602 68.6 329.602C68.6 329.602 61.01 327.842 61.01 336.552C61.01 336.552 46.42 335.152 42.91 342.972H129.91L130.06 316.772Z" fill="#0F9AFE"/>
<path opacity="0.4" d="M130.06 316.772C130.06 316.772 134.93 316.512 135.41 303.202C135.89 289.892 127.32 286.342 120.72 287.972C120.72 287.972 121.72 278.492 117.41 278.842C113.1 279.192 113.41 285.522 113.41 285.522C113.41 285.522 111.95 272.082 106.11 272.072C100.27 272.062 106.11 287.972 106.11 287.972C106.11 287.972 98.04 284.092 95.11 287.972C92.18 291.852 98.82 296.392 98.82 296.392C98.82 296.392 88.35 299.802 92.73 310.662C92.73 310.662 85.43 311.802 83.39 316.662C83.39 316.662 83.97 306.852 81.39 307.512C78.81 308.172 79.39 316.772 79.39 316.772C79.39 316.772 75.02 307.322 71.22 310.662C67.42 314.002 72.97 322.002 72.97 322.002C72.97 322.002 65.68 318.462 64.51 323.152C63.34 327.842 68.6 329.602 68.6 329.602C68.6 329.602 61.01 327.842 61.01 336.552C61.01 336.552 46.42 335.152 42.91 342.972H129.91L130.06 316.772Z" fill="white"/>
<path d="M86.64 340.752C86.64 340.752 106.8 327.682 103 325.482C99.2 323.282 85.7 336.322 85.7 336.322C85.7 336.322 100.56 314.582 96.89 310.222C93.22 305.862 83.33 327.942 83.33 327.942C83.33 327.942 90.05 302.702 85.33 299.942C80.61 297.182 78.84 325.242 78.84 325.242C78.84 325.242 77 294.832 68.29 295.242C59.58 295.652 72.29 325.242 72.29 325.242C72.29 325.242 60 307.632 55.64 312.632C51.28 317.632 69.48 331.632 69.48 331.632C69.48 331.632 55.87 325.242 55 330.002C54.13 334.762 70 339.792 70 339.792C70 339.792 64.88 341.262 63.7 342.972H90.91C90.91 342.972 91.34 341.672 86.64 340.752Z" fill="#0F9AFE"/>
<path opacity="0.6" d="M86.64 340.752C86.64 340.752 106.8 327.682 103 325.482C99.2 323.282 85.7 336.322 85.7 336.322C85.7 336.322 100.56 314.582 96.89 310.222C93.22 305.862 83.33 327.942 83.33 327.942C83.33 327.942 90.05 302.702 85.33 299.942C80.61 297.182 78.84 325.242 78.84 325.242C78.84 325.242 77 294.832 68.29 295.242C59.58 295.652 72.29 325.242 72.29 325.242C72.29 325.242 60 307.632 55.64 312.632C51.28 317.632 69.48 331.632 69.48 331.632C69.48 331.632 55.87 325.242 55 330.002C54.13 334.762 70 339.792 70 339.792C70 339.792 64.88 341.262 63.7 342.972H90.91C90.91 342.972 91.34 341.672 86.64 340.752Z" fill="white"/>
<path d="M96.73 342.972C96.73 342.972 119.93 257.602 124.15 254.442C128.37 251.282 152.44 242.372 152.44 242.372C152.44 242.372 210.99 252.152 219.79 251.182C228.59 250.212 256.87 244.772 260.93 251.182C264.99 257.592 281 296.112 281 296.112L303.49 305.602L317.74 342.972H96.73Z" fill="#0F9AFE"/>
<path opacity="0.6" d="M317.74 342.972H96.74C96.74 342.972 119.83 257.972 124.13 254.452C125.631 253.469 127.214 252.616 128.86 251.902C137.22 248.012 152.42 242.392 152.42 242.392C152.42 242.392 210.97 252.172 219.77 251.202C228.57 250.232 256.85 244.782 260.91 251.202C261.77 252.572 263.18 255.392 264.86 258.992C271.08 272.242 281 296.102 281 296.102L303.49 305.602L317.74 342.972Z" fill="white"/>
<path opacity="0.1" d="M264.88 258.972L256.15 267.612L233.4 262.242L207.66 267.592L209.31 277.542L199.94 288.702L203.27 277.542L196 265.292C196 265.292 166.38 267.092 158.65 265.292C153.8 264.162 139.13 257.022 128.91 251.882C137.27 247.992 152.47 242.372 152.47 242.372C152.47 242.372 211.02 252.152 219.82 251.182C228.62 250.212 256.9 244.762 260.96 251.182C261.79 252.552 263.2 255.372 264.88 258.972Z" fill="black"/>
<path opacity="0.1" d="M317.74 342.972H96.74C96.74 342.972 119.83 257.972 124.13 254.452L109.89 320.692L117.01 331.692L134.51 318.412L148 325.852L166.62 322.092L168.47 313.092L194.85 295.742L178.29 311.082L184.12 328.582L209.47 332.952H237.47L249 325.242L245.14 309.542L239.31 300.442L268.86 300.372L256.28 308.162L260.92 321.992L275.15 328.592L291.69 318.382L298.43 337.862L317.74 342.972Z" fill="black"/>
<path d="M288.2 342.972H324.83C324.83 342.972 317.54 331.812 314.43 333.232C310.38 335.072 307.38 324.962 302.9 327.352C301.32 328.202 302.1 330.902 301.1 331.992C299.46 333.792 297.37 333.442 295.39 334.432C291.5 336.372 290.12 338.932 288.2 342.972Z" fill="#0F9AFE"/>
<path opacity="0.2" d="M288.2 342.972H324.83C324.83 342.972 317.54 331.812 314.43 333.232C310.38 335.072 307.38 324.962 302.9 327.352C301.32 328.202 302.1 330.902 301.1 331.992C299.46 333.792 297.37 333.442 295.39 334.432C291.5 336.372 290.12 338.932 288.2 342.972Z" fill="black"/>
<path d="M320.83 339.862C320.83 339.862 318.42 325.912 320.08 323.862C321.74 321.812 322.03 331.472 322.03 331.472C322.03 331.472 327.61 311.312 331.18 311.212C334.75 311.112 327 328.702 327 328.702C327 328.702 342.26 303.762 346.69 306.082C351.12 308.402 330.69 330.512 330.69 330.512C330.69 330.512 341.85 320.902 344.31 323.622C346.77 326.342 331.92 334.622 331.92 334.622C331.92 334.622 338.47 333.152 338.46 335.332C338.45 337.512 327.38 341.102 320.83 339.862Z" fill="#0F9AFE"/>
<path opacity="0.2" d="M320.83 339.862C320.83 339.862 318.42 325.912 320.08 323.862C321.74 321.812 322.03 331.472 322.03 331.472C322.03 331.472 327.61 311.312 331.18 311.212C334.75 311.112 327 328.702 327 328.702C327 328.702 342.26 303.762 346.69 306.082C351.12 308.402 330.69 330.512 330.69 330.512C330.69 330.512 341.85 320.902 344.31 323.622C346.77 326.342 331.92 334.622 331.92 334.622C331.92 334.622 338.47 333.152 338.46 335.332C338.45 337.512 327.38 341.102 320.83 339.862Z" fill="white"/>
<path d="M318.63 337.872C318.63 337.872 307.16 335.792 306.05 333.932C304.94 332.072 312.48 334.572 312.48 334.572C312.48 334.572 298.48 324.572 299.39 321.772C300.3 318.972 311.72 329.982 311.72 329.982C311.72 329.982 296.72 311.142 299.79 308.362C302.86 305.582 314.18 327.622 314.18 327.622C314.18 327.622 309.9 316.272 312.69 315.132C315.48 313.992 317.69 327.832 317.69 327.832C317.69 327.832 318.4 322.352 320.08 322.972C321.76 323.592 321.44 333.152 318.63 337.872Z" fill="#0F9AFE"/>
<path opacity="0.2" d="M318.63 337.872C318.63 337.872 307.16 335.792 306.05 333.932C304.94 332.072 312.48 334.572 312.48 334.572C312.48 334.572 298.48 324.572 299.39 321.772C300.3 318.972 311.72 329.982 311.72 329.982C311.72 329.982 296.72 311.142 299.79 308.362C302.86 305.582 314.18 327.622 314.18 327.622C314.18 327.622 309.9 316.272 312.69 315.132C315.48 313.992 317.69 327.832 317.69 327.832C317.69 327.832 318.4 322.352 320.08 322.972C321.76 323.592 321.44 333.152 318.63 337.872Z" fill="white"/>
<path d="M317.77 336.342C317.77 336.342 306.69 325.252 306.89 322.342C307.09 319.432 313.51 327.982 313.51 327.982C313.51 327.982 305.7 306.172 308.87 303.802C312.04 301.432 316.19 322.342 316.19 322.342C316.19 322.342 314.09 290.022 319.59 289.342C325.09 288.662 320.71 321.642 320.71 321.642C320.71 321.642 324.71 305.832 328.65 306.712C332.59 307.592 324.45 324.582 324.45 324.582C324.45 324.582 329.45 319.072 330.82 321.052C332.19 323.032 324.49 333.242 317.77 336.342Z" fill="#0F9AFE"/>
<path opacity="0.1" d="M317.77 336.342C317.77 336.342 306.69 325.252 306.89 322.342C307.09 319.432 313.51 327.982 313.51 327.982C313.51 327.982 305.7 306.172 308.87 303.802C312.04 301.432 316.19 322.342 316.19 322.342C316.19 322.342 314.09 290.022 319.59 289.342C325.09 288.662 320.71 321.642 320.71 321.642C320.71 321.642 324.71 305.832 328.65 306.712C332.59 307.592 324.45 324.582 324.45 324.582C324.45 324.582 329.45 319.072 330.82 321.052C332.19 323.032 324.49 333.242 317.77 336.342Z" fill="white"/>
<path d="M304.34 342.972H333.53C333.53 342.972 327.72 334.082 325.24 335.212C322.02 336.682 319.63 328.622 316.06 330.532C314.8 331.202 315.41 333.352 314.62 334.222C313.31 335.662 311.62 335.382 310.07 336.172C307 337.712 305.87 339.752 304.34 342.972Z" fill="#0F9AFE"/>
<path d="M122 342.972H85.4C85.4 342.972 92.7 331.812 95.81 333.232C99.81 335.072 102.81 324.962 107.33 327.352C108.91 328.202 108.14 330.902 109.14 331.992C110.78 333.792 112.87 333.442 114.85 334.432C118.74 336.372 120.12 338.932 122 342.972Z" fill="#0F9AFE"/>
<path opacity="0.2" d="M122 342.972H85.4C85.4 342.972 92.7 331.812 95.81 333.232C99.81 335.072 102.81 324.962 107.33 327.352C108.91 328.202 108.14 330.902 109.14 331.992C110.78 333.792 112.87 333.442 114.85 334.432C118.74 336.372 120.12 338.932 122 342.972Z" fill="black"/>
<path d="M89.41 339.862C89.41 339.862 91.81 325.912 90.15 323.862C88.49 321.812 88.15 331.472 88.15 331.472C88.15 331.472 82.62 311.312 79.05 311.242C75.48 311.172 83.29 328.732 83.29 328.732C83.29 328.732 68 303.762 63.59 306.082C59.18 308.402 79.59 330.512 79.59 330.512C79.59 330.512 68.42 320.902 65.96 323.622C63.5 326.342 78.36 334.622 78.36 334.622C78.36 334.622 71.81 333.152 71.82 335.332C71.83 337.512 82.85 341.102 89.41 339.862Z" fill="#0F9AFE"/>
<path opacity="0.2" d="M89.41 339.862C89.41 339.862 91.81 325.912 90.15 323.862C88.49 321.812 88.15 331.472 88.15 331.472C88.15 331.472 82.62 311.312 79.05 311.242C75.48 311.172 83.29 328.732 83.29 328.732C83.29 328.732 68 303.762 63.59 306.082C59.18 308.402 79.59 330.512 79.59 330.512C79.59 330.512 68.42 320.902 65.96 323.622C63.5 326.342 78.36 334.622 78.36 334.622C78.36 334.622 71.81 333.152 71.82 335.332C71.83 337.512 82.85 341.102 89.41 339.862Z" fill="white"/>
<path d="M100.65 340.522C100.65 340.522 109.38 332.792 109.37 330.622C109.36 328.452 104.2 334.512 104.2 334.512C104.2 334.512 111 318.682 108.76 316.782C106.52 314.882 102.47 330.242 102.47 330.242C102.47 330.242 105.47 306.362 101.47 305.572C97.47 304.782 99.15 329.492 99.15 329.492C99.15 329.492 96.92 317.572 93.95 318.052C90.98 318.532 96.24 331.502 96.24 331.502C96.24 331.502 92.79 327.182 91.67 328.592C90.55 330.002 95.81 337.932 100.65 340.522Z" fill="#0F9AFE"/>
<path opacity="0.2" d="M100.65 340.522C100.65 340.522 109.38 332.792 109.37 330.622C109.36 328.452 104.2 334.512 104.2 334.512C104.2 334.512 111 318.682 108.76 316.782C106.52 314.882 102.47 330.242 102.47 330.242C102.47 330.242 105.47 306.362 101.47 305.572C97.47 304.782 99.15 329.492 99.15 329.492C99.15 329.492 96.92 317.572 93.95 318.052C90.98 318.532 96.24 331.502 96.24 331.502C96.24 331.502 92.79 327.182 91.67 328.592C90.55 330.002 95.81 337.932 100.65 340.522Z" fill="white"/>
<path d="M105.9 342.972H76.7C76.7 342.972 82.52 334.082 85 335.212C88.22 336.682 90.61 328.622 94.18 330.532C95.44 331.202 94.82 333.352 95.61 334.222C96.92 335.662 98.61 335.382 100.17 336.172C103.27 337.712 104.37 339.752 105.9 342.972Z" fill="#0F9AFE"/>
<path d="M174.87 151.242C174.87 151.242 141.25 146.002 134.87 148.752C128.49 151.502 126.34 161.392 126.34 161.392C126.34 161.392 125.19 163.392 128.67 163.652C128.67 163.652 114.44 199.102 118.94 205.892C123.44 212.682 168.76 215.402 174.94 212.072C181.12 208.742 195.79 153.772 174.87 151.242Z" fill="#263238"/>
<path d="M194.67 185.062C194.67 185.062 199.12 195.392 200.12 196.832C201.12 198.272 223.27 208.452 223.27 208.452C225.065 208.201 226.885 208.201 228.68 208.452C231.41 208.882 235.17 210.032 235.51 210.452C235.85 210.872 231.4 217.342 231.4 217.342C231.4 217.342 222.55 217.892 221.4 214.392C221.4 214.392 199.21 206.152 196.63 203.992C194.05 201.832 186.87 189.072 186.87 189.072L194.67 185.062Z" fill="#E4897B"/>
<path d="M188.3 162.442C192.46 164.922 198.97 191.622 200.37 194.792C201.77 197.962 218.77 205.672 218.77 205.672L211.23 212.892C211.23 212.892 194 205.242 191.86 203.102C189.72 200.962 181.12 178.772 181.12 178.772L188.3 162.442Z" fill="#0F9AFE"/>
<path d="M186.92 223.462C186.92 223.462 257.04 213.392 260.74 228.772C264.65 245.042 208.35 256.012 174.74 257.162C141.13 258.312 131.41 250.922 136.81 209.342L182.21 209.232L186.92 223.462Z" fill="#263238"/>
<path opacity="0.2" d="M186.92 223.462C186.92 223.462 257.04 213.392 260.74 228.772C264.65 245.042 208.35 256.012 174.74 257.162C141.13 258.312 131.41 250.922 136.81 209.342L182.21 209.232L186.92 223.462Z" fill="black"/>
<path d="M250.25 247.302C250.214 247.329 250.17 247.343 250.125 247.343C250.08 247.343 250.036 247.329 250 247.302C249.967 247.28 249.943 247.246 249.932 247.208C249.921 247.169 249.924 247.128 249.94 247.092C250.05 246.722 251.16 243.482 252.29 243.142C252.409 243.114 252.534 243.117 252.652 243.152C252.769 243.187 252.876 243.253 252.96 243.342C253.117 243.472 253.237 243.641 253.308 243.833C253.378 244.024 253.396 244.231 253.36 244.432C253.179 245.036 252.811 245.568 252.31 245.952C251.67 246.47 250.98 246.922 250.25 247.302V247.302ZM250.53 246.682C251.579 246.222 252.43 245.403 252.93 244.372C252.959 244.235 252.949 244.092 252.899 243.961C252.849 243.829 252.763 243.715 252.65 243.632C252.618 243.593 252.576 243.565 252.527 243.55C252.479 243.536 252.428 243.537 252.38 243.552C252.286 243.592 252.198 243.646 252.12 243.712C251.417 244.599 250.878 245.605 250.53 246.682Z" fill="#0F9AFE"/>
<path d="M250.19 247.352C250.153 247.363 250.113 247.364 250.076 247.353C250.039 247.343 250.005 247.321 249.98 247.292C249.87 247.192 248.32 245.232 248.57 243.912C248.638 243.582 248.832 243.292 249.11 243.102C249.227 242.986 249.38 242.914 249.544 242.898C249.708 242.882 249.872 242.922 250.01 243.012C250.82 243.592 250.72 246.212 250.32 247.212V247.312L250.19 247.352ZM249.3 243.502C249.162 243.625 249.067 243.79 249.03 243.972C248.87 244.812 249.65 246.072 250.03 246.672C250.29 245.552 250.21 243.672 249.73 243.382C249.68 243.382 249.58 243.272 249.34 243.442L249.26 243.502H249.3Z" fill="#0F9AFE"/>
<path d="M225.96 255.542L240.66 255.552L247.71 255.562L248.55 248.132L242.03 247.262L226.09 245.132L225.96 255.542Z" fill="#E4897B"/>
<path d="M247 247.242L245.21 255.712C245.188 255.823 245.189 255.937 245.212 256.048C245.235 256.159 245.28 256.264 245.345 256.357C245.409 256.45 245.491 256.53 245.587 256.59C245.682 256.651 245.788 256.693 245.9 256.712L250.12 257.472C250.12 257.472 255.73 258.902 257.31 257.892C261.91 254.952 266.31 236.302 264.47 234.892C263.79 234.392 262.6 235.152 262.01 235.762C260.12 237.692 256.09 243.072 254.49 244.672C252.63 246.532 249.32 246.582 247.87 246.512C247.66 246.505 247.456 246.576 247.295 246.71C247.135 246.845 247.029 247.034 247 247.242V247.242Z" fill="#263238"/>
<path opacity="0.2" d="M225.96 255.542L240.66 255.552L242.03 247.262L226.09 245.132L225.96 255.542Z" fill="black"/>
<path d="M170.45 222.952V224.812C170.452 225.431 170.692 226.025 171.12 226.472C171.548 226.919 172.132 227.184 172.75 227.212H241.14C241.776 227.191 242.382 226.933 242.839 226.489C243.296 226.046 243.571 225.448 243.61 224.812V222.952H170.45Z" fill="#263238"/>
<path opacity="0.2" d="M170.45 222.952V224.812C170.452 225.431 170.692 226.025 171.12 226.472C171.548 226.919 172.132 227.184 172.75 227.212H241.14C241.776 227.191 242.382 226.933 242.839 226.489C243.296 226.046 243.571 225.448 243.61 224.812V222.952H170.45Z" fill="white"/>
<path opacity="0.2" d="M196 222.952V224.812C196.004 225.432 196.247 226.026 196.676 226.473C197.106 226.919 197.691 227.184 198.31 227.212H241.17C241.806 227.191 242.412 226.933 242.869 226.489C243.326 226.046 243.601 225.448 243.64 224.812V222.952H196Z" fill="white"/>
<path d="M198.28 225.502H243.46C244.185 225.466 244.884 225.217 245.469 224.787C246.054 224.357 246.5 223.764 246.75 223.082L257.11 190.582C257.231 190.301 257.278 189.995 257.248 189.691C257.217 189.387 257.11 189.095 256.936 188.844C256.762 188.593 256.527 188.391 256.253 188.255C255.979 188.12 255.675 188.057 255.37 188.072H210.19C209.458 188.125 208.757 188.39 208.174 188.836C207.592 189.282 207.152 189.889 206.91 190.582L196.55 223.042C196.429 223.319 196.382 223.622 196.412 223.923C196.442 224.223 196.55 224.511 196.723 224.758C196.897 225.005 197.132 225.204 197.404 225.334C197.677 225.464 197.979 225.522 198.28 225.502V225.502Z" fill="#263238"/>
<path opacity="0.2" d="M198.28 225.502H243.46C244.185 225.466 244.884 225.217 245.469 224.787C246.054 224.357 246.5 223.764 246.75 223.082L257.11 190.582C257.231 190.301 257.278 189.995 257.248 189.691C257.217 189.387 257.11 189.095 256.936 188.844C256.762 188.593 256.527 188.391 256.253 188.255C255.979 188.12 255.675 188.057 255.37 188.072H210.19C209.458 188.125 208.757 188.39 208.174 188.836C207.592 189.282 207.152 189.889 206.91 190.582L196.55 223.042C196.429 223.319 196.382 223.622 196.412 223.923C196.442 224.223 196.55 224.511 196.723 224.758C196.897 225.005 197.132 225.204 197.404 225.334C197.677 225.464 197.979 225.522 198.28 225.502V225.502Z" fill="white"/>
<path opacity="0.2" d="M200 225.502H243.48C244.205 225.466 244.904 225.217 245.489 224.787C246.074 224.357 246.52 223.764 246.77 223.082L257.13 190.582C257.251 190.301 257.298 189.995 257.268 189.691C257.238 189.387 257.13 189.095 256.956 188.844C256.782 188.593 256.547 188.391 256.273 188.255C255.999 188.12 255.695 188.057 255.39 188.072H211.89C211.158 188.125 210.457 188.39 209.875 188.836C209.292 189.282 208.852 189.889 208.61 190.582L198.25 223.042C198.128 223.32 198.081 223.626 198.112 223.928C198.143 224.231 198.252 224.52 198.428 224.768C198.605 225.015 198.842 225.213 199.117 225.342C199.393 225.471 199.697 225.526 200 225.502Z" fill="white"/>
<path opacity="0.2" d="M226.42 208.242C225.86 210.402 226.94 212.162 228.83 212.162C230.72 212.162 232.69 210.402 233.25 208.242C233.81 206.082 232.73 204.322 230.85 204.322C228.97 204.322 227 206.112 226.42 208.242Z" fill="white"/>
<path opacity="0.2" d="M247 247.242L245.21 255.712C245.188 255.823 245.189 255.937 245.212 256.048C245.235 256.159 245.28 256.264 245.345 256.357C245.409 256.45 245.491 256.53 245.587 256.59C245.682 256.651 245.788 256.693 245.9 256.712L250.12 257.472C250.12 257.472 255.73 258.902 257.31 257.892C261.91 254.952 266.31 236.302 264.47 234.892C263.79 234.392 262.6 235.152 262.01 235.762C260.12 237.692 256.09 243.072 254.49 244.672C252.63 246.532 249.32 246.582 247.87 246.512C247.66 246.505 247.456 246.576 247.295 246.71C247.135 246.845 247.029 247.034 247 247.242V247.242Z" fill="white"/>
<path d="M150.26 215.232L136.08 215.412L136.35 210.802L150.26 210.502V215.232Z" fill="black"/>
<path d="M178.24 209.892L182.48 209.802L184 214.782L178.24 214.862V209.892Z" fill="black"/>
<path d="M176.43 209.932V214.882L152.44 215.202V210.452L176.43 209.932Z" fill="black"/>
<path d="M162.61 214.022L162.54 212.092C162.512 211.596 162.68 211.109 163.007 210.735C163.334 210.361 163.795 210.13 164.29 210.092L168.63 209.912C168.872 209.903 169.112 209.944 169.338 210.031C169.563 210.119 169.768 210.252 169.94 210.422C170.304 210.783 170.515 211.27 170.53 211.782L170.6 213.702C170.625 214.199 170.455 214.686 170.126 215.059C169.798 215.433 169.336 215.663 168.84 215.702L164.51 215.882H164.43C163.946 215.864 163.488 215.661 163.149 215.315C162.81 214.969 162.617 214.506 162.61 214.022V214.022ZM168.81 214.892C169.097 214.864 169.363 214.725 169.549 214.505C169.736 214.284 169.83 214 169.81 213.712L169.74 211.792C169.725 211.494 169.601 211.213 169.39 211.002C169.292 210.901 169.173 210.822 169.042 210.771C168.911 210.719 168.771 210.696 168.63 210.702L164.29 210.882C164.002 210.907 163.735 211.046 163.548 211.266C163.36 211.487 163.268 211.773 163.29 212.062L163.36 213.992C163.36 214.137 163.389 214.28 163.445 214.414C163.501 214.547 163.583 214.668 163.686 214.77C163.79 214.871 163.912 214.951 164.047 215.005C164.181 215.058 164.325 215.085 164.47 215.082L168.81 214.892Z" fill="white"/>
<path d="M163.35 213.392H165.53C165.662 213.389 165.788 213.336 165.881 213.243C165.974 213.149 166.027 213.024 166.03 212.892C166.03 212.759 165.977 212.632 165.884 212.538C165.79 212.445 165.663 212.392 165.53 212.392H163.35C163.217 212.392 163.09 212.445 162.996 212.538C162.903 212.632 162.85 212.759 162.85 212.892C162.853 213.024 162.906 213.149 162.999 213.243C163.093 213.336 163.218 213.389 163.35 213.392Z" fill="white"/>
<path d="M188.3 162.442C188.3 162.442 182.83 197.032 185.12 209.442L134.53 210.912C134.53 210.912 140.53 175.182 148.48 161.702C148.48 161.662 161.69 139.602 188.3 162.442Z" fill="#0F9AFE"/>
<path opacity="0.6" d="M188.3 162.442C188.3 162.442 182.83 197.032 185.12 209.442L134.53 210.912C134.53 210.912 140.53 175.182 148.48 161.702C148.48 161.662 161.69 139.602 188.3 162.442Z" fill="white"/>
<path d="M158.62 154.742C158.62 154.742 167.01 162.942 171.86 161.602C176.71 160.262 178.53 157.792 178.53 157.792C178.53 157.792 174.63 156.082 175.06 155.152C175.11 155.052 175.23 154.862 175.4 154.582C176.85 152.382 181.99 145.362 181.99 145.362L170.99 139.172C170.99 139.172 170.09 141.302 168.99 143.842C167.5 147.222 165.64 151.312 164.99 152.072C163.85 153.412 158.62 154.742 158.62 154.742Z" fill="#E4897B"/>
<path opacity="0.2" d="M168.94 143.842C169.63 147.742 171.33 152.332 175.4 154.582C176.85 152.382 181.99 145.362 181.99 145.362L170.99 139.172C170.99 139.172 170.05 141.302 168.94 143.842Z" fill="black"/>
<path d="M166.73 136.242C166.116 138.182 165.816 140.207 165.84 142.242C166.05 144.722 163.29 145.552 162.94 144.052C162.94 144.052 162.99 147.702 165.36 147.152C165.36 147.152 165.36 149.682 167.48 149.722C169.283 147.234 170.218 144.223 170.14 141.152C169.81 136.342 166.73 136.242 166.73 136.242Z" fill="#263238"/>
<path d="M185.74 124.082C182.14 125.572 182.74 133.932 188.74 141.082C192.41 137.922 194.08 130.622 193.21 127.742C191.81 123.132 188.87 122.792 185.74 124.082Z" fill="#263238"/>
<path d="M191 144.432C190.677 145.387 190.296 146.322 189.86 147.232C186.31 154.462 176.1 155.872 171.58 148.722L171.53 148.652C168.53 143.832 169.66 139.342 170.91 131.552C171.184 129.741 171.916 128.03 173.035 126.581C174.155 125.132 175.625 123.992 177.308 123.269C178.991 122.547 180.83 122.265 182.652 122.451C184.474 122.637 186.218 123.284 187.72 124.332C193.61 128.482 193.26 137.782 191 144.432Z" fill="#E4897B"/>
<path d="M181.88 136.242C181.74 136.872 181.96 137.452 182.36 137.542C182.76 137.632 183.21 137.202 183.36 136.542C183.51 135.882 183.29 135.332 182.88 135.242C182.47 135.152 182.06 135.662 181.88 136.242Z" fill="#263238"/>
<path d="M189 137.872C188.86 138.492 189.08 139.072 189.49 139.162C189.9 139.252 190.34 138.832 190.49 138.162C190.64 137.492 190.41 136.952 190 136.862C189.59 136.772 189.12 137.242 189 137.872Z" fill="#263238"/>
<path d="M186.59 137.642C186.911 139.714 187.513 141.733 188.38 143.642C187.884 143.851 187.349 143.949 186.812 143.928C186.274 143.907 185.748 143.769 185.27 143.522L186.59 137.642Z" fill="#DE5753"/>
<path d="M180.44 133.592C180.358 133.581 180.282 133.547 180.22 133.492C180.15 133.419 180.111 133.323 180.111 133.222C180.111 133.121 180.15 133.025 180.22 132.952C180.666 132.554 181.202 132.27 181.782 132.123C182.362 131.977 182.968 131.973 183.55 132.112C183.596 132.124 183.639 132.144 183.677 132.173C183.715 132.201 183.747 132.237 183.772 132.278C183.796 132.319 183.812 132.364 183.818 132.411C183.825 132.458 183.822 132.506 183.81 132.552V132.552C183.78 132.647 183.714 132.727 183.627 132.776C183.539 132.824 183.437 132.837 183.34 132.812V132.812C182.88 132.708 182.402 132.717 181.946 132.837C181.49 132.957 181.069 133.185 180.72 133.502C180.682 133.535 180.637 133.56 180.589 133.575C180.541 133.591 180.49 133.596 180.44 133.592V133.592Z" fill="#263238"/>
<path d="M192.75 136.242C192.681 136.222 192.618 136.186 192.567 136.135C192.516 136.084 192.48 136.021 192.46 135.952C192.364 135.491 192.162 135.058 191.868 134.69C191.575 134.322 191.198 134.028 190.77 133.832C190.676 133.798 190.6 133.729 190.557 133.639C190.514 133.549 190.508 133.446 190.54 133.352C190.574 133.258 190.643 133.182 190.733 133.139C190.823 133.096 190.926 133.09 191.02 133.122C191.568 133.359 192.052 133.725 192.429 134.187C192.807 134.65 193.068 135.197 193.19 135.782C193.202 135.829 193.204 135.878 193.197 135.927C193.19 135.975 193.174 136.021 193.149 136.063C193.123 136.105 193.09 136.141 193.051 136.17C193.012 136.199 192.967 136.22 192.92 136.232V136.232C192.865 136.247 192.807 136.25 192.75 136.242V136.242Z" fill="#263238"/>
<path d="M183.79 147.362C182.729 147.258 181.718 146.86 180.87 146.214C180.022 145.567 179.371 144.698 178.99 143.702C178.971 143.632 178.981 143.557 179.016 143.493C179.052 143.43 179.11 143.383 179.18 143.362C179.252 143.343 179.328 143.352 179.393 143.387C179.458 143.423 179.507 143.482 179.53 143.552C179.53 143.662 180.35 146.202 183.88 146.812C183.952 146.826 184.015 146.867 184.058 146.927C184.1 146.986 184.119 147.059 184.11 147.132C184.098 147.205 184.057 147.27 183.997 147.313C183.937 147.356 183.863 147.373 183.79 147.362V147.362Z" fill="#263238"/>
<path d="M192.51 130.312C192.51 130.312 194.83 128.532 194.74 126.452C194.66 125.138 194.243 123.867 193.528 122.761C192.813 121.656 191.825 120.754 190.66 120.142C188.449 118.862 185.945 118.173 183.39 118.142C174.53 117.622 169.71 120.282 168.19 125.012C167.25 126.692 167.27 129.812 168.11 132.732C168.115 132.748 168.115 132.765 168.11 132.782C168.564 134.448 169.35 136.006 170.42 137.362C175.82 132.682 177.83 129.362 176.98 127.162C177.16 127.112 179.84 124.712 181.03 124.652C182.75 124.562 185.92 126.192 188.49 127.722C189.9 128.552 191.35 127.222 191.35 127.222L192.51 130.312Z" fill="#263238"/>
<path d="M165.85 136.912C165.906 137.893 166.154 138.854 166.581 139.74C167.009 140.625 167.606 141.418 168.34 142.072C170.34 143.792 172.44 142.292 172.83 139.842C173.19 137.632 172.59 134.062 170.15 133.282C167.71 132.502 165.71 134.482 165.85 136.912Z" fill="#E4897B"/>
<path d="M165.84 142.172C165.84 142.172 169.12 129.422 177.23 124.672C185.34 119.922 193.75 123.242 193.75 123.242C193.662 121.963 193.478 120.693 193.2 119.442C192.96 119.042 188.94 117.662 188.94 117.662C188.94 117.662 186.65 114.292 183.47 113.212C180.29 112.132 170.79 111.822 167.47 114.592C164.15 117.362 161.96 123.002 163.36 123.102C164.76 123.202 165.83 123.202 165.83 123.202C165.83 123.202 163.21 132.252 164.33 133.612C164.34 133.602 162.4 139.902 165.84 142.172Z" fill="#0F9AFE"/>
<path d="M182.11 258.982C182.136 258.946 182.171 258.919 182.212 258.901C182.252 258.883 182.296 258.877 182.34 258.882C182.379 258.887 182.415 258.906 182.44 258.935C182.466 258.965 182.48 259.003 182.48 259.042C182.56 259.422 183.08 262.802 182.24 263.632C182.148 263.712 182.037 263.766 181.918 263.791C181.799 263.815 181.676 263.809 181.56 263.772C181.36 263.731 181.175 263.637 181.023 263.5C180.872 263.362 180.76 263.187 180.7 262.992C180.579 262.374 180.656 261.734 180.92 261.162C181.241 260.396 181.64 259.666 182.11 258.982V258.982ZM182.11 259.672C181.412 260.573 181.058 261.693 181.11 262.832C181.147 262.966 181.223 263.087 181.328 263.18C181.432 263.272 181.562 263.332 181.7 263.352C181.745 263.372 181.795 263.378 181.843 263.369C181.891 263.36 181.936 263.337 181.97 263.302C182.042 263.228 182.096 263.139 182.13 263.042C182.338 261.929 182.342 260.786 182.14 259.672H182.11Z" fill="#0F9AFE"/>
<path d="M204.49 242.432L190.55 247.062L183.85 249.292L185.4 256.602L191.87 255.372L207.66 252.352L204.49 242.432Z" fill="#E4897B"/>
<path d="M187.21 256.982L186.21 248.382C186.198 248.265 186.162 248.151 186.104 248.049C186.047 247.946 185.969 247.856 185.875 247.785C185.781 247.714 185.674 247.663 185.559 247.635C185.445 247.606 185.326 247.602 185.21 247.622L181 248.242C181 248.242 175.23 248.662 174.05 250.112C170.61 254.362 172.3 273.452 174.52 274.172C175.33 274.432 176.21 273.332 176.58 272.572C177.76 270.142 179.89 263.762 180.89 261.742C182.07 259.392 185.19 258.292 186.59 257.902C186.786 257.848 186.957 257.726 187.071 257.557C187.185 257.388 187.234 257.184 187.21 256.982Z" fill="#263238"/>
<path d="M182.14 258.922C182.172 258.898 182.21 258.884 182.25 258.884C182.29 258.884 182.328 258.898 182.36 258.922C182.49 258.922 184.78 259.922 185.17 261.252C185.225 261.416 185.245 261.59 185.228 261.763C185.211 261.935 185.157 262.102 185.07 262.252C185.019 262.406 184.917 262.539 184.78 262.628C184.644 262.717 184.482 262.757 184.32 262.742C183.32 262.612 182.2 260.242 182.09 259.182V259.072C182.086 259.045 182.089 259.017 182.098 258.991C182.106 258.965 182.121 258.941 182.14 258.922ZM184.72 261.922C184.78 261.747 184.78 261.557 184.72 261.382C184.48 260.562 183.2 259.812 182.55 259.482C182.84 260.592 183.77 262.182 184.35 262.252C184.41 262.252 184.53 262.252 184.66 262.012L184.71 261.922H184.72Z" fill="#0F9AFE"/>
<path opacity="0.2" d="M204.49 242.432L190.55 247.062L191.87 255.372L207.66 252.352L204.49 242.432Z" fill="black"/>
<path d="M194.29 256.662L198.27 257.032L195.89 243.282L191.32 245.682L194.29 256.662Z" fill="#0F9AFE"/>
<path opacity="0.6" d="M194.29 256.662L198.27 257.032L195.89 243.282L191.32 245.682L194.29 256.662Z" fill="white"/>
<path opacity="0.2" d="M187.21 256.982L186.21 248.382C186.198 248.265 186.162 248.151 186.104 248.049C186.047 247.946 185.969 247.856 185.875 247.785C185.781 247.714 185.674 247.663 185.559 247.635C185.445 247.606 185.326 247.602 185.21 247.622L181 248.242C181 248.242 175.23 248.662 174.05 250.112C170.61 254.362 172.3 273.452 174.52 274.172C175.33 274.432 176.21 273.332 176.58 272.572C177.76 270.142 179.89 263.762 180.89 261.742C182.07 259.392 185.19 258.292 186.59 257.902C186.786 257.848 186.957 257.726 187.071 257.557C187.185 257.388 187.234 257.184 187.21 256.982Z" fill="white"/>
<path d="M239.32 246.182C239.32 246.182 174.08 220.842 154.11 225.072C134.14 229.302 134.03 239.762 144.11 249.512C154.19 259.262 169.37 255.512 169.37 255.512C169.37 255.512 157.48 248.392 158.31 243.992C159.14 239.592 166.7 249.652 166.7 249.652C166.7 249.652 206.12 259.292 238.7 256.752L239.32 246.182Z" fill="#263238"/>
<path d="M240.11 245.122L236.45 243.442L234.34 257.172L239.44 256.342L240.11 245.122Z" fill="#0F9AFE"/>
<path opacity="0.6" d="M240.11 245.122L236.45 243.442L234.34 257.172L239.44 256.342L240.11 245.122Z" fill="white"/>
<path d="M154.48 152.082C154.48 152.082 163.31 176.082 162.85 181.472C162.39 186.862 144.2 227.242 144.2 227.242L129.2 233.242C129.2 233.242 132.29 173.932 154.48 152.082Z" fill="#0F9AFE"/>
<path opacity="0.2" d="M154.48 152.082C154.48 152.082 163.31 176.082 162.85 181.472C162.39 186.862 144.2 227.242 144.2 227.242L129.2 233.242C129.2 233.242 132.29 173.932 154.48 152.082Z" fill="black"/>
<path d="M186.35 221.752C186.35 221.752 181.63 210.562 180.12 204.362C178.61 198.162 183.89 166.312 181.05 155.622L188.3 162.442L185.23 202.242L186.35 221.752Z" fill="#0F9AFE"/>
<path opacity="0.2" d="M186.35 221.752C186.35 221.752 181.63 210.562 180.12 204.362C178.61 198.162 183.89 166.312 181.05 155.622L188.3 162.442L185.23 202.242L186.35 221.752Z" fill="black"/>
<path d="M132.82 204.362C132.82 204.362 164.11 210.362 159.16 153.202L154.07 152.762C154.07 152.762 157.17 174.482 151.46 188.692C145.75 202.902 132.29 202.242 132.29 202.242L132.82 204.362Z" fill="#263238"/>
<path d="M162.67 178.962L152.17 154.582L149 158.772C149 158.772 148.44 152.862 150.28 151.142C152.12 149.422 157.28 151.572 159.28 152.082C161.28 152.592 162.67 178.962 162.67 178.962Z" fill="#0F9AFE"/>
<path d="M179.22 156.002C179.22 156.002 183.27 168.002 182.61 186.782C181.95 205.562 185.33 204.002 185.33 204.002L185.81 202.232C185.81 202.232 183.92 202.012 184.07 195.682C184.22 189.352 185.07 163.802 182.61 157.092L179.22 156.002Z" fill="#263238"/>
<path d="M181.34 178.242C181.34 178.242 182.34 160.242 177.28 154.972C177.28 154.972 181.07 153.552 182.61 154.972C184.15 156.392 184.53 170.102 181.51 178.972" fill="#0F9AFE"/>
<path d="M155.93 185.602C155.93 185.602 160.51 196.232 161.54 197.712C162.57 199.192 185.36 209.712 185.36 209.712C187.208 209.455 189.082 209.455 190.93 209.712C193.74 210.152 197.61 211.332 197.93 211.782C198.25 212.232 193.7 218.872 193.7 218.872C193.7 218.872 184.59 219.432 183.46 215.872C183.46 215.872 160.62 207.392 157.97 205.172C155.32 202.952 148 189.732 148 189.732L155.93 185.602Z" fill="#E4897B"/>
<path d="M150.26 161.752C155.14 161.752 161.99 191.542 163.26 195.582C164.53 199.622 184.77 208.242 184.77 208.242L178.34 215.852C178.34 215.852 156.46 207.952 153.89 204.322C151.32 200.692 143.53 180.022 143.17 175.242C142.81 170.462 147 161.742 150.26 161.752Z" fill="#0F9AFE"/>
</svg>
