<svg width="100" height="30" viewBox="0 0 100 30" fill="none" xmlns="http://www.w3.org/2000/svg">
<path d="M32.16 23V5.36H35.568V23H32.16ZM42.864 23L37.488 15.368H41.304L46.848 23H42.864ZM34.56 17.144V14.384H39.024C39.648 14.384 40.184 14.256 40.632 14C41.096 13.744 41.456 13.384 41.712 12.92C41.968 12.456 42.096 11.928 42.096 11.336C42.096 10.728 41.968 10.192 41.712 9.728C41.456 9.264 41.096 8.904 40.632 8.648C40.184 8.392 39.648 8.264 39.024 8.264H34.56V5.36H38.664C40.072 5.36 41.288 5.568 42.312 5.984C43.352 6.4 44.152 7.032 44.712 7.88C45.272 8.728 45.552 9.792 45.552 11.072V11.456C45.552 12.752 45.264 13.816 44.688 14.648C44.128 15.48 43.336 16.104 42.312 16.52C41.288 16.936 40.072 17.144 38.664 17.144H34.56ZM57.0654 23V19.136H56.5134V14.84C56.5134 14.088 56.3294 13.528 55.9614 13.16C55.5934 12.792 55.0254 12.608 54.2574 12.608C53.8574 12.608 53.3774 12.616 52.8174 12.632C52.2574 12.648 51.6894 12.672 51.1134 12.704C50.5534 12.72 50.0494 12.744 49.6014 12.776V9.944C49.9694 9.912 50.3854 9.88 50.8494 9.848C51.3134 9.816 51.7854 9.8 52.2654 9.8C52.7614 9.784 53.2254 9.776 53.6574 9.776C55.0014 9.776 56.1134 9.952 56.9934 10.304C57.8894 10.656 58.5614 11.208 59.0094 11.96C59.4734 12.712 59.7054 13.696 59.7054 14.912V23H57.0654ZM52.8654 23.336C51.9214 23.336 51.0894 23.168 50.3694 22.832C49.6654 22.496 49.1134 22.016 48.7134 21.392C48.3294 20.768 48.1374 20.016 48.1374 19.136C48.1374 18.176 48.3694 17.392 48.8334 16.784C49.3134 16.176 49.9774 15.72 50.8254 15.416C51.6894 15.112 52.6974 14.96 53.8494 14.96H56.8734V16.952H53.8014C53.0334 16.952 52.4414 17.144 52.0254 17.528C51.6254 17.896 51.4254 18.376 51.4254 18.968C51.4254 19.56 51.6254 20.04 52.0254 20.408C52.4414 20.776 53.0334 20.96 53.8014 20.96C54.2654 20.96 54.6894 20.88 55.0734 20.72C55.4734 20.544 55.8014 20.256 56.0574 19.856C56.3294 19.44 56.4814 18.88 56.5134 18.176L57.3294 19.112C57.2494 20.024 57.0254 20.792 56.6574 21.416C56.3054 22.04 55.8094 22.52 55.1694 22.856C54.5454 23.176 53.7774 23.336 52.8654 23.336ZM69.0628 23.456C67.9268 23.456 66.9428 23.264 66.1108 22.88C65.2948 22.496 64.6068 21.984 64.0468 21.344C63.5028 20.704 63.0948 19.984 62.8228 19.184C62.5508 18.384 62.4148 17.568 62.4148 16.736V16.28C62.4148 15.4 62.5508 14.56 62.8228 13.76C63.1108 12.944 63.5348 12.224 64.0948 11.6C64.6548 10.96 65.3428 10.456 66.1588 10.088C66.9908 9.704 67.9508 9.512 69.0388 9.512C70.1748 9.512 71.1908 9.736 72.0868 10.184C72.9828 10.616 73.6948 11.224 74.2228 12.008C74.7668 12.792 75.0708 13.704 75.1348 14.744H71.8948C71.8148 14.072 71.5268 13.512 71.0308 13.064C70.5508 12.616 69.8868 12.392 69.0388 12.392C68.3028 12.392 67.6868 12.568 67.1908 12.92C66.7108 13.272 66.3508 13.76 66.1108 14.384C65.8708 14.992 65.7508 15.696 65.7508 16.496C65.7508 17.264 65.8628 17.96 66.0868 18.584C66.3268 19.208 66.6868 19.696 67.1668 20.048C67.6628 20.4 68.2948 20.576 69.0628 20.576C69.6388 20.576 70.1348 20.472 70.5508 20.264C70.9668 20.056 71.2948 19.768 71.5348 19.4C71.7908 19.032 71.9508 18.616 72.0148 18.152H75.2548C75.1908 19.208 74.8788 20.136 74.3188 20.936C73.7748 21.72 73.0468 22.336 72.1348 22.784C71.2388 23.232 70.2148 23.456 69.0628 23.456ZM77.9273 23V5.48H81.2633V15.704H80.6873C80.6873 14.392 80.8553 13.28 81.1913 12.368C81.5273 11.456 82.0233 10.76 82.6793 10.28C83.3513 9.8 84.1993 9.56 85.2233 9.56H85.3673C86.8553 9.56 87.9833 10.072 88.7513 11.096C89.5193 12.12 89.9033 13.608 89.9033 15.56V23H86.5673V15.248C86.5673 14.416 86.3273 13.76 85.8473 13.28C85.3833 12.8 84.7673 12.56 83.9993 12.56C83.1833 12.56 82.5193 12.832 82.0073 13.376C81.5113 13.904 81.2633 14.6 81.2633 15.464V23H77.9273ZM94.1138 23V9.968H97.4498V23H94.1138ZM92.2898 12.464V9.968H97.4498V12.464H92.2898ZM95.3378 8.408C94.6818 8.408 94.1938 8.24 93.8738 7.904C93.5698 7.552 93.4178 7.12 93.4178 6.608C93.4178 6.064 93.5698 5.624 93.8738 5.288C94.1938 4.952 94.6818 4.784 95.3378 4.784C95.9938 4.784 96.4738 4.952 96.7778 5.288C97.0818 5.624 97.2338 6.064 97.2338 6.608C97.2338 7.12 97.0818 7.552 96.7778 7.904C96.4738 8.24 95.9938 8.408 95.3378 8.408Z" fill="#293145"/>
<circle cx="6" cy="12" r="6" fill="#0F9AFE"/>
<circle cx="12" cy="18" r="6" fill="#293145"/>
</svg>
