<svg width="50" height="46" viewBox="0 0 50 46" fill="none" xmlns="http://www.w3.org/2000/svg">
<path d="M14.072 6.328C13.4 6.328 12.872 6.424 12.488 6.616C12.136 6.808 11.88 7.24 11.72 7.912C11.592 8.584 11.528 9.656 11.528 11.128V15.832C11.528 17.048 11.336 18.104 10.952 19C10.6 19.864 10.184 20.568 9.704 21.112C9.224 21.656 8.776 22.072 8.36 22.36C8.712 22.616 9.128 23.016 9.608 23.56C10.12 24.072 10.568 24.712 10.952 25.48C11.336 26.216 11.528 27.048 11.528 27.976V33.736C11.528 35.176 11.592 36.232 11.72 36.904C11.88 37.576 12.136 38.008 12.488 38.2C12.872 38.392 13.4 38.488 14.072 38.488H15.848V44.344H12.056C11.16 44.344 10.264 44.328 9.368 44.296C8.504 44.264 7.704 44.088 6.968 43.768C6.232 43.48 5.64 42.92 5.192 42.088C4.776 41.288 4.568 40.12 4.568 38.584V30.664C4.568 29.704 4.424 28.808 4.136 27.976C3.848 27.112 3.416 26.408 2.84 25.864C2.264 25.32 1.544 25.048 0.68 25.048V19.48C1.544 19.448 2.264 19.176 2.84 18.664C3.416 18.12 3.848 17.432 4.136 16.6C4.424 15.736 4.568 14.824 4.568 13.864V6.28C4.568 4.744 4.776 3.576 5.192 2.776C5.608 1.976 6.168 1.416 6.872 1.096C7.608 0.775999 8.424 0.599998 9.32 0.567997C10.216 0.503998 11.128 0.471998 12.056 0.471998H15.848V6.328H14.072ZM49.859 22.792C49.859 26.056 49.459 29.112 48.659 31.96C47.891 34.808 46.899 37.336 45.683 39.544C44.467 41.784 43.171 43.624 41.795 45.064L36.275 42.52C37.523 41.08 38.643 39.384 39.635 37.432C40.627 35.512 41.411 33.336 41.987 30.904C42.563 28.44 42.851 25.736 42.851 22.792C42.851 19.848 42.563 17.16 41.987 14.728C41.411 12.264 40.627 10.072 39.635 8.152C38.643 6.2 37.523 4.52 36.275 3.112L41.795 0.519998C43.171 1.96 44.467 3.8 45.683 6.04C46.899 8.28 47.891 10.824 48.659 13.672C49.459 16.488 49.859 19.528 49.859 22.792Z" fill="#873EFF"/>
</svg>
